<?xml version="1.0" encoding="UTF-8"?>
<svg id="_レイヤー_1" data-name="レイヤー_1" xmlns="http://www.w3.org/2000/svg" version="1.1" viewBox="0 0 128 128">
  <!-- Generator: Adobe Illustrator 30.3.0, SVG Export Plug-In . SVG Version: 2.1.3 Build 182)  -->
  <defs>
    <style>
      .st0 {
        fill: #4f4f4f;
      }
    </style>
  </defs>
  <path class="st0" d="M121.15,122.22l-5.35-1.27-4.74-.59-6.39-.29-8.38-.36-8.04-.32-19.78-.15-29.14.19-12.81.3-5.68.31-4.33.34-4.74.57c-2.88.34-4.3,1.4-5.75,1.4s.82-6.32,3.5-9.28,5.67-5.28,9.5-7.28c-9.67-3.7-14.22-18.77-12.02-17.99l1.37.48c2.53.89,5.35,1.31,8.11,1.52l3.75.28,24.04.05,2.31-.41-.07-7.29.08-14.08.09-21.83-9.74.28c-5.61.16-11.05.14-16.61.59-3.54.29-7.45,2.3-7.62,1.75l-.39-1.27c2.26-8.43,7.04-14.1,14.76-18.41-6.14-3.61-10.14-9.5-11.91-16.13-.65-2.42-1.54-5.76-.58-7.67,1.47.57,2.41,1.07,3.74,1.5,4.78,1.53,12.46,1.65,17.94,1.39,6.56-.3,12.88-.1,19.42.08l6.02.16,4.11-.03,34.89-.24c4.39-.03,8.59-.71,12.51-2.29.84-.35,1.55-.57,2.4-.51.22,2.65-.37,4.72-1.09,7.12-2.2,7.37-5.14,12.88-12.15,17,3.16,1.76,5.93,3.56,8.11,6.18,3.14,3.46,5.45,7.27,6.24,11.92l-.34,1.18c-.1.32-1.06-.07-1.39-.2-3.83-1.45-7.81-1.76-11.88-1.85l-10.15-.24-11.77-.09-3.39-.02.19,9.21.09,9.7-.07,6.11v8.36s-.1,7.66-.1,7.66l-.05,2.05,14.53.18c5.45.07,10.77.16,16.24.12l3.71-.36c3.45-.34,6.47-1.01,10.04-2.6.68,7.7-5.27,16.61-12.49,19.48l5.02,3.43c3.38,2.93,5.68,6.57,6.87,10.99.11.18-.34,1.27-.64,1.2v-.02h0Z"/>
</svg>