<?xml version="1.0" encoding="UTF-8"?>
<svg id="_レイヤー_1" xmlns="http://www.w3.org/2000/svg" version="1.1" viewBox="0 0 133 44">
  <!-- Generator: Adobe Illustrator 30.3.0, SVG Export Plug-In . SVG Version: 2.1.3 Build 182)  -->
  <defs>
    <style>
      .st0 {
        fill: none;
      }

      .st1 {
        fill: #fff;
      }
    </style>
  </defs>
  <path class="st1" d="M15.78,8.64h7.09c2.97,0,5.18.39,6.63,1.15,1.45.76,2.17,1.94,2.17,3.5,0,2.15-1.37,3.79-4.09,4.91,3.4.63,5.1,2.17,5.1,4.61,0,1.66-.77,3.03-2.31,4.11-1.54,1.08-4.25,1.62-8.12,1.62l-7.08.02c-.18-.43-.27-.84-.27-1.24,0-.27.07-.46.23-.58s.36-.18.65-.18h1.08c.06-1.25.09-4.01.09-8.28,0-3.85-.03-6.4-.09-7.64h-1.68c-.18-.43-.27-.84-.27-1.22,0-.27.07-.47.23-.59.14-.12.36-.18.65-.18M21.49,16.94c.49.1,1.09.14,1.79.14,1.17,0,2.03-.22,2.54-.65s.77-1.12.77-2.05c0-1.01-.27-1.75-.82-2.23-.55-.47-1.37-.72-2.48-.72-.58,0-1.17.05-1.78.14,0,.92-.02,2.71-.02,5.35M21.49,19.6v3.42c0,1.12.13,1.85.39,2.2s.99.52,2.18.52,2.14-.23,2.7-.68c.56-.45.84-1.19.84-2.23,0-1.11-.34-1.95-1.02-2.52-.68-.57-1.74-.86-3.16-.86-.63,0-1.28.05-1.95.14"/>
  <path class="st1" d="M35.95,8.64h8.05c.17.36.25.72.25,1.08s-.06.59-.19.72c-.13.13-.34.19-.62.19h-1.43c-.05,1.25-.06,3.3-.06,6.16,0,5.26.02,8.51.07,9.75h1.97c.17.35.25.71.25,1.08,0,.34-.06.58-.19.72s-.34.2-.62.2h-8.09c-.18-.43-.27-.84-.27-1.24,0-.27.07-.46.22-.58s.36-.18.65-.18h1.37c.05-1.25.07-4.5.07-9.77,0-2.85-.04-4.9-.09-6.14h-1.95c-.18-.43-.27-.84-.27-1.22,0-.27.07-.47.22-.59s.36-.18.65-.18"/>
  <path class="st1" d="M53.87,26.54h2.13c.17.35.25.71.25,1.08,0,.34-.06.58-.19.72s-.33.2-.6.2h-8.27c-.18-.43-.27-.84-.27-1.24,0-.27.07-.46.22-.58s.36-.18.65-.18h1.37c.05-1.25.07-4.5.07-9.77,0-2.85-.02-4.9-.07-6.14h-1.96c-.17-.43-.25-.84-.25-1.22,0-.27.07-.47.22-.59s.35-.18.64-.18h7.64c3.06,0,5.25.42,6.55,1.27s1.96,2.19,1.96,4.05c0,2.56-1.6,4.34-4.81,5.34.8.33,1.49.84,2.04,1.54.56.69,1.15,1.66,1.77,2.92s1.13,2.03,1.53,2.33c.4.31.97.46,1.73.46.27.87.23,1.46-.09,1.79s-1.14.5-2.46.5c-1.53,0-2.59-.16-3.17-.49-.59-.33-1.11-1.32-1.58-2.97s-.98-2.89-1.53-3.69-1.29-1.21-2.24-1.21c-.51,0-.96.05-1.35.14,0,2.89.03,4.87.07,5.92M53.8,18.1h1.19c1.26,0,2.23-.23,2.91-.71s1-1.22,1-2.25c0-1.33-.33-2.28-1-2.85-.66-.57-1.5-.85-2.52-.85-.62,0-1.13.05-1.51.14-.05.61-.07,2.35-.07,5.2v1.31h0Z"/>
  <path class="st1" d="M68.98,8.64h6.21c4.44,0,7.48.7,9.12,2.09,1.65,1.4,2.47,3.71,2.47,6.94,0,3.58-.85,6.29-2.56,8.12s-4.59,2.74-8.66,2.74l-7.19.02c-.18-.43-.27-.84-.27-1.24,0-.27.07-.46.23-.58.14-.12.36-.18.65-.18h1.08c.06-1.25.09-4.52.09-9.78,0-2.85-.03-4.9-.09-6.14h-1.68c-.18-.43-.27-.84-.27-1.22,0-.27.07-.47.23-.59.14-.12.36-.18.64-.18M76.6,11.44c-.71,0-1.32.05-1.84.14-.05,1.36-.07,4.52-.07,9.46,0,2.31.14,3.67.43,4.08s1.03.62,2.22.62c1.42,0,2.51-.47,3.26-1.38.75-.92,1.12-2.78,1.12-5.57s-.44-4.66-1.32-5.74-2.14-1.61-3.79-1.61"/>
  <path class="st1" d="M90.62,8.64h8.05c.17.36.25.72.25,1.08s-.06.59-.19.72c-.13.13-.33.19-.62.19h-1.43c-.05,1.25-.07,3.3-.06,6.16,0,5.26.02,8.51.07,9.75h1.97c.17.35.25.71.25,1.08,0,.34-.06.58-.19.72s-.34.2-.62.2h-8.09c-.18-.43-.27-.84-.27-1.24,0-.27.07-.46.23-.58.14-.12.36-.18.65-.18h1.37c.05-1.25.07-4.5.07-9.77,0-2.85-.04-4.9-.09-6.14h-1.96c-.18-.43-.27-.84-.27-1.22,0-.27.07-.47.22-.59.14-.12.36-.18.65-.18"/>
  <path class="st1" d="M102.47,8.64h13.39c.63,0,1.08.1,1.35.28.27.19.4.58.4,1.17,0,.72-.24,1.45-.72,2.22-2.06-.83-4.7-1.24-7.92-1.24h-.71c-.06.95-.09,2.89-.09,5.82h7.42c.17.51.25,1.05.25,1.6,0,.33-.06.55-.18.66-.12.11-.35.17-.68.17h-6.82c0,3.75.04,6,.09,6.78h1.22c3.3,0,5.92-.39,7.85-1.15.43.64.65,1.33.65,2.08,0,.54-.2.92-.6,1.15s-1.21.35-2.44.35l-13.08.02c-.18-.43-.27-.84-.27-1.24,0-.27.07-.46.22-.58s.36-.18.65-.18h1.08c.06-1.25.09-4.52.09-9.78,0-2.85-.03-4.9-.09-6.14h-1.68c-.18-.43-.27-.84-.27-1.22,0-.27.07-.47.22-.59.14-.12.36-.18.65-.18"/>
  <path class="st1" d="M55.48,37.83c-.25.21-.52.4-.8.58s-.57.31-.87.43-.59.17-.86.17c-.24,0-.47-.06-.67-.18s-.38-.27-.52-.47-.26-.4-.34-.63c-.08-.23-.12-.46-.12-.68v-5.11c0-.09.03-.16.09-.22s.13-.1.21-.13c.08-.03.16-.05.24-.06s.14-.02.19-.02c.06,0,.13,0,.2.03s.14.05.19.09c.06.04.1.08.14.13s.06.1.06.16v-.1c0,.09-.02.18-.02.31s0,.28-.02.5c0,.22-.02.49-.02.84,0,.26-.02.51-.02.76v.76c.09-.12.21-.23.38-.32.17-.1.36-.14.58-.14.46,0,.82.15,1.09.46s.41.77.41,1.4c0,.05,0,.14-.02.27,0,.14-.02.27-.02.41s-.02.27-.03.38-.02.16-.02.16c.03,0,.1-.03.2-.1.1-.06.2-.14.31-.23s.22-.16.32-.24.18-.13.23-.15l.2.31c-.19.19-.42.39-.67.59M53.76,37.23v-.31c0-.13,0-.27-.02-.42,0-.15-.02-.31-.06-.47s-.06-.3-.11-.43c-.05-.13-.1-.23-.18-.31s-.15-.12-.26-.12c-.09,0-.16.03-.23.09s-.14.13-.18.2-.1.15-.13.24c-.03.08-.05.15-.05.19v.13s0,.13,0,.24,0,.26,0,.45c0,.1,0,.24.02.44,0,.19.03.39.08.58s.11.36.21.51.23.22.41.22c.14,0,.23-.05.31-.14s.12-.21.15-.34c.03-.13.06-.27.06-.41s0-.26,0-.35"/>
  <path class="st0" d="M55.48,37.83c-.25.21-.52.4-.8.58s-.57.31-.87.43-.59.17-.86.17c-.24,0-.47-.06-.67-.18s-.38-.27-.52-.47-.26-.4-.34-.63c-.08-.23-.12-.46-.12-.68v-5.11c0-.09.03-.16.09-.22s.13-.1.21-.13c.08-.03.16-.05.24-.06s.14-.02.19-.02c.06,0,.13,0,.2.03s.14.05.19.09c.06.04.1.08.14.13s.06.1.06.16v-.1c0,.09-.02.18-.02.31s0,.28-.02.5c0,.22-.02.49-.02.84,0,.26-.02.51-.02.76v.76c.09-.12.21-.23.38-.32.17-.1.36-.14.58-.14.46,0,.82.15,1.09.46s.41.77.41,1.4c0,.05,0,.14-.02.27,0,.14-.02.27-.02.41s-.02.27-.03.38-.02.16-.02.16c.03,0,.1-.03.2-.1.1-.06.2-.14.31-.23s.22-.16.32-.24.18-.13.23-.15l.2.31c-.19.19-.42.39-.67.6h-.03ZM53.76,37.23v-.31c0-.13,0-.27-.02-.42,0-.15-.02-.31-.06-.47s-.06-.3-.11-.43c-.05-.13-.1-.23-.18-.31s-.15-.12-.26-.12c-.09,0-.16.03-.23.09s-.14.13-.18.2-.1.15-.13.24c-.03.08-.05.15-.05.19v.13s0,.13,0,.24,0,.26,0,.45c0,.1,0,.24.02.44,0,.19.03.39.08.58.04.19.11.36.21.51s.23.22.41.22c.14,0,.23-.05.31-.14s.12-.21.15-.34c.03-.13.06-.27.06-.41s0-.26,0-.35h-.02Z"/>
  <path class="st1" d="M60.79,37.83c-.25.21-.52.4-.8.58s-.57.31-.87.43-.59.17-.86.17c-.24,0-.47-.06-.67-.18s-.38-.27-.52-.46-.26-.4-.34-.63c-.08-.23-.12-.46-.12-.68s.03-.48.09-.76c.06-.28.17-.55.34-.81s.39-.47.67-.64c.28-.18.64-.26,1.09-.26.18,0,.36.04.55.11.18.07.34.19.48.35s.26.35.35.59.14.51.14.82c0,.06,0,.15,0,.25s-.02.2-.02.31-.02.23-.04.34-.03.22-.05.31t0,.02s.1-.03.2-.1c.1-.06.2-.14.32-.23s.23-.16.33-.24.18-.13.23-.15l.2.31c-.19.18-.42.39-.67.59M59.07,37.23v-.31c0-.13,0-.27-.02-.42,0-.15-.02-.31-.06-.47s-.06-.3-.11-.43c-.05-.13-.1-.23-.18-.31s-.15-.12-.26-.12c-.14,0-.25.04-.34.12-.08.08-.14.18-.18.31-.04.12-.06.26-.08.39-.02.14-.02.27-.02.39v.33c0,.1,0,.24.02.44,0,.19.03.39.08.58.04.19.11.36.21.51s.23.22.41.22c.14,0,.23-.05.31-.14s.12-.21.15-.34c.03-.13.06-.27.06-.41s0-.27,0-.35"/>
  <path class="st0" d="M60.79,37.83c-.25.21-.52.4-.8.58s-.57.31-.87.43-.59.17-.86.17c-.24,0-.47-.06-.67-.18s-.38-.27-.52-.46-.26-.4-.34-.63c-.08-.23-.12-.46-.12-.68s.03-.48.09-.76c.06-.28.17-.55.34-.81s.39-.47.67-.64c.28-.18.64-.26,1.09-.26.18,0,.36.04.55.11.18.07.34.19.48.35s.26.35.35.59.14.51.14.82c0,.06,0,.15,0,.25s-.02.2-.02.31-.02.23-.04.34-.03.22-.05.31t0,.02s.1-.03.2-.1c.1-.06.2-.14.32-.23s.23-.16.33-.24.18-.13.23-.15l.2.31c-.19.18-.42.39-.68.59l-.02-.03ZM59.07,37.23v-.31c0-.13,0-.27-.02-.42,0-.15-.02-.31-.06-.47s-.06-.3-.11-.43c-.05-.13-.1-.23-.18-.31s-.15-.12-.26-.12c-.14,0-.25.04-.34.12-.08.08-.14.18-.18.31-.04.12-.06.26-.08.39-.02.14-.02.27-.02.39v.33c0,.1,0,.24.02.44,0,.19.03.39.08.58.04.19.11.36.21.51s.23.22.41.22c.14,0,.23-.05.31-.14s.12-.21.15-.34c.03-.13.06-.27.06-.41s0-.27,0-.35h0Z"/>
  <path class="st1" d="M64.07,38.12c-.14.14-.29.28-.45.41-.16.14-.33.25-.51.35s-.35.14-.53.14c-.11,0-.21-.03-.27-.09s-.11-.13-.14-.22-.05-.18-.05-.28,0-.19,0-.28v-.51c0-.12,0-.24,0-.34,0-.1,0-.2,0-.31,0-.1,0-.25,0-.43,0-.18,0-.4,0-.68v-1.09c-.06,0-.12-.02-.19-.03-.07-.02-.14-.03-.22-.06s-.13-.06-.18-.1-.07-.1-.07-.17c0-.06.02-.13.06-.19.05-.06.12-.09.22-.09l.38.1.02-.49c0-.09.03-.16.1-.21s.14-.08.23-.11c.09-.02.18-.04.27-.04h.22c.06,0,.12.02.18.04.06.02.12.06.17.09.05.03.08.06.11.1.03.03.05.05.05.06-.02.02-.02.07-.02.14-.02.06-.02.15-.02.27,0,.12,0,.28-.02.49l.49.13c.06.04.1.12.1.23,0,.06-.02.1-.05.15-.03.05-.1.07-.18.07-.06,0-.12-.02-.18-.03-.06-.02-.13-.02-.19-.04,0,.18-.02.36-.02.56s-.02.42-.02.66-.02.51-.03.82-.03.65-.05,1.03c0,0,0,.02,0,.02.03,0,.1-.03.19-.1.1-.06.19-.14.31-.22.11-.08.22-.15.32-.23s.18-.13.23-.15l.2.31c-.11.09-.23.2-.38.34"/>
  <path class="st0" d="M64.07,38.12c-.14.14-.29.28-.45.41-.16.14-.33.25-.51.35s-.35.14-.53.14c-.11,0-.21-.03-.27-.09s-.11-.13-.14-.22-.05-.18-.05-.28,0-.19,0-.28v-.51c0-.12,0-.24,0-.34,0-.1,0-.2,0-.31,0-.1,0-.25,0-.43,0-.18,0-.4,0-.68v-1.09c-.06,0-.12-.02-.19-.03-.07-.02-.14-.03-.22-.06s-.13-.06-.18-.1-.07-.1-.07-.17c0-.06.02-.13.06-.19.05-.06.12-.09.22-.09l.38.1.02-.49c0-.09.03-.16.1-.21s.14-.08.23-.11c.09-.02.18-.04.27-.04h.22c.06,0,.12.02.18.04.06.02.12.06.17.09.05.03.08.06.11.1.03.03.05.05.05.06-.02.02-.02.07-.02.14-.02.06-.02.15-.02.27,0,.12,0,.28-.02.49l.49.13c.06.04.1.12.1.23,0,.06-.02.1-.05.15-.03.05-.1.07-.18.07-.06,0-.12-.02-.18-.03-.06-.02-.13-.02-.19-.04,0,.18-.02.36-.02.56s-.02.42-.02.66-.02.51-.03.82-.03.65-.05,1.03c0,0,0,.02,0,.02.03,0,.1-.03.19-.1.1-.06.19-.14.31-.22.11-.08.22-.15.32-.23s.18-.13.23-.15l.2.31c-.11.09-.23.2-.38.34h-.02Z"/>
  <path class="st1" d="M69.1,38.12c-.14.14-.29.28-.45.41-.16.14-.33.25-.51.35s-.35.14-.53.14c-.11,0-.22-.05-.3-.14s-.14-.18-.17-.27c-.09.1-.21.19-.35.27s-.31.11-.49.11c-.23,0-.43-.05-.59-.14s-.31-.22-.43-.36-.2-.31-.26-.47c-.06-.17-.09-.32-.09-.46,0-.39.04-.74.13-1.07.09-.33.22-.61.39-.86.18-.24.4-.43.68-.58.27-.14.6-.22.99-.23.06,0,.1,0,.14-.02s.09-.04.13-.06c.04-.02.09-.04.14-.06s.12-.02.2-.02h.17c.07,0,.14.02.2.03s.12.05.16.08c.04.04.06.09.06.17-.02.47-.02.96-.05,1.47-.02.52-.04,1.1-.07,1.73,0,.02,0,.04.02.04.03,0,.1-.03.19-.09.09-.06.19-.13.3-.21.1-.08.21-.15.31-.23s.18-.12.23-.14l.2.31c-.11.08-.23.19-.38.34M67.12,37.05v-.63c0-.25,0-.61,0-1.06,0-.05-.03-.08-.11-.09-.07,0-.14-.02-.18-.02-.16,0-.28.05-.36.14-.08.09-.14.21-.18.35s-.06.31-.06.48,0,.35,0,.52c0,.14,0,.31.02.5s.05.36.1.52c.05.17.12.31.22.42.1.11.23.17.39.17.06,0,.11-.02.14-.06.02-.03.05-.09.06-.15v-1.09h0Z"/>
  <path class="st0" d="M69.1,38.12c-.14.14-.29.28-.45.41-.16.14-.33.25-.51.35s-.35.14-.53.14c-.11,0-.22-.05-.3-.14s-.14-.18-.17-.27c-.09.1-.21.19-.35.27s-.31.11-.49.11c-.23,0-.43-.05-.59-.14s-.31-.22-.43-.36-.2-.31-.26-.47c-.06-.17-.09-.32-.09-.46,0-.39.04-.74.13-1.07.09-.33.22-.61.39-.86.18-.24.4-.43.68-.58.27-.14.6-.22.99-.23.06,0,.1,0,.14-.02s.09-.04.13-.06c.04-.02.09-.04.14-.06s.12-.02.2-.02h.17c.07,0,.14.02.2.03s.12.05.16.08c.04.04.06.09.06.17-.02.47-.02.96-.05,1.47-.02.52-.04,1.1-.07,1.73,0,.02,0,.04.02.04.03,0,.1-.03.19-.09.09-.06.19-.13.3-.21.1-.08.21-.15.31-.23s.18-.12.23-.14l.2.31c-.11.08-.23.19-.38.34v-.03ZM67.12,37.05v-.63c0-.25,0-.61,0-1.06,0-.05-.03-.08-.11-.09s-.14-.02-.18-.02c-.16,0-.28.05-.36.14s-.14.21-.18.35-.06.31-.06.48,0,.35,0,.52c0,.14,0,.31.02.5s.05.36.1.52c.05.17.12.31.22.42.1.11.23.17.39.17.06,0,.11-.02.14-.06.02-.03.05-.09.06-.15v-1.09h0Z"/>
  <path class="st1" d="M74.02,38.12c-.14.14-.29.28-.45.41-.16.14-.33.25-.51.35-.18.1-.35.14-.53.14-.11,0-.2-.02-.27-.08-.07-.05-.13-.12-.17-.19-.04-.08-.07-.17-.08-.27-.02-.1-.02-.19,0-.28l.05-2.1c0-.15,0-.28-.04-.38-.03-.1-.07-.15-.12-.15-.17,0-.29.1-.38.31s-.15.47-.2.8-.08.67-.1,1.05-.05.75-.06,1.09v.12s-.03.04-.09.06-.11.02-.18.02-.13,0-.19,0h-.24s-.1,0-.15-.02-.1-.02-.14-.05c-.04-.02-.06-.05-.06-.09v-4.01c0-.11.06-.19.18-.24.12-.05.25-.08.39-.08.15,0,.29.02.41.08s.18.14.18.24v.54l.07-.13c.06-.1.11-.19.17-.28.06-.09.13-.16.21-.23.08-.06.18-.11.3-.15s.27-.06.45-.06c.13,0,.24.02.34.08.1.05.18.12.25.21.06.09.12.18.15.3.04.11.06.23.06.35,0,.14,0,.32-.02.55,0,.24-.02.48-.03.75-.02.26-.03.51-.04.76,0,.24-.02.44-.02.59,0,.03,0,.05.02.05.03,0,.1-.03.19-.1.09-.06.19-.14.3-.22.1-.08.21-.15.31-.23.1-.08.18-.13.23-.15l.2.3c-.1.09-.23.2-.37.34"/>
  <path class="st0" d="M74.02,38.12c-.14.14-.29.28-.45.41-.16.14-.33.25-.51.35-.18.1-.35.14-.53.14-.11,0-.2-.02-.27-.08-.07-.05-.13-.12-.17-.19-.04-.08-.07-.17-.08-.27-.02-.1-.02-.19,0-.28l.05-2.1c0-.15,0-.28-.04-.38-.03-.1-.07-.15-.12-.15-.17,0-.29.1-.38.31s-.15.47-.2.8-.08.67-.1,1.05-.05.75-.06,1.09v.12s-.03.04-.09.06-.11.02-.18.02-.13,0-.19,0h-.24s-.1,0-.15-.02-.1-.02-.14-.05c-.04-.02-.06-.05-.06-.09v-4.01c0-.11.06-.19.18-.24.12-.05.25-.08.39-.08.15,0,.29.02.41.08s.18.14.18.24v.54l.07-.13c.06-.1.11-.19.17-.28.06-.09.13-.16.21-.23.08-.06.18-.11.3-.15s.27-.06.45-.06c.13,0,.24.02.34.08.1.05.18.12.25.21.06.09.12.18.15.3.04.11.06.23.06.35,0,.14,0,.32-.02.55,0,.24-.02.48-.03.75-.02.26-.03.51-.04.76,0,.24-.02.44-.02.59,0,.03,0,.05.02.05.03,0,.1-.03.19-.1.09-.06.19-.14.3-.22.1-.08.21-.15.31-.23.1-.08.18-.13.23-.15l.2.3c-.1.09-.23.2-.37.34h-.04Z"/>
  <path class="st1" d="M76.94,38.12c-.14.14-.29.28-.45.41-.16.14-.33.25-.51.35s-.35.14-.53.14c-.11,0-.21-.03-.27-.09-.06-.06-.11-.13-.14-.22s-.05-.18-.05-.28,0-.19,0-.28v-.95c0-.14,0-.27,0-.41s0-.3,0-.47,0-.38,0-.61v-.83c0-.09.06-.14.18-.18s.25-.06.39-.06c.16,0,.31.02.43.06.13.04.2.1.21.18l-.12,3.28s0,.02,0,.02c.03,0,.1-.03.19-.1s.19-.14.31-.22c.11-.08.22-.15.31-.23s.18-.13.23-.15l.2.31c-.11.09-.23.2-.38.34M76.21,33.41c0,.08,0,.16-.02.24s-.05.15-.1.22c-.05.06-.11.11-.18.15-.08.04-.18.06-.31.06-.21,0-.36-.06-.46-.18-.09-.11-.14-.27-.14-.46,0-.21.05-.38.13-.51.09-.14.26-.21.51-.21.16,0,.29.05.39.15s.15.28.16.53"/>
  <path class="st0" d="M76.94,38.12c-.14.14-.29.28-.45.41-.16.14-.33.25-.51.35s-.35.14-.53.14c-.11,0-.21-.03-.27-.09-.06-.06-.11-.13-.14-.22s-.05-.18-.05-.28,0-.19,0-.28v-.95c0-.14,0-.27,0-.41s0-.3,0-.47,0-.38,0-.61v-.83c0-.09.06-.14.18-.18s.25-.06.39-.06c.16,0,.31.02.43.06.13.04.2.1.21.18l-.12,3.28s0,.02,0,.02c.03,0,.1-.03.19-.1s.19-.14.31-.22c.11-.08.22-.15.31-.23s.18-.13.23-.15l.2.31c-.11.09-.23.2-.38.34h0ZM76.21,33.41c0,.08,0,.16-.02.24s-.05.15-.1.22c-.05.06-.11.11-.18.15-.08.04-.18.06-.31.06-.21,0-.36-.06-.46-.18-.09-.11-.14-.27-.14-.46,0-.21.05-.38.13-.51.09-.14.26-.21.51-.21.16,0,.29.05.39.15s.15.28.16.53h0Z"/>
  <path class="st1" d="M81.46,38.14c-.14.14-.3.28-.46.41-.06.06-.15.14-.26.2-.1.07-.23.13-.35.18s-.27.1-.42.14-.29.06-.44.06c-.34,0-.62-.06-.83-.18-.21-.11-.37-.27-.49-.47-.11-.2-.19-.43-.23-.68s-.06-.53-.06-.82v-.09c0-.22.03-.47.1-.73.07-.27.18-.52.35-.76.16-.23.39-.43.65-.59.27-.16.61-.24,1.02-.24.08,0,.17,0,.27.03.1.02.18.06.27.13.08.06.15.14.2.25s.08.23.08.39c0,.14-.04.25-.11.32-.06.08-.13.11-.18.11-.06,0-.1-.02-.11-.06s-.02-.13-.02-.25c0-.1-.04-.18-.11-.27-.08-.08-.21-.12-.41-.12-.14,0-.25.06-.35.19-.1.13-.18.3-.26.49s-.12.41-.15.63c-.03.23-.05.43-.05.62,0,.45.08.8.23,1.07s.42.4.79.4c.11,0,.23-.03.36-.1.12-.06.25-.15.38-.26s.26-.22.39-.34.27-.23.39-.34l.2.31c-.11.1-.23.21-.38.35"/>
  <path class="st0" d="M81.46,38.14c-.14.14-.3.28-.46.41-.06.06-.15.14-.26.2-.1.07-.23.13-.35.18s-.27.1-.42.14-.29.06-.44.06c-.34,0-.62-.06-.83-.18-.21-.11-.37-.27-.49-.47-.11-.2-.19-.43-.23-.68s-.06-.53-.06-.82v-.09c0-.22.03-.47.1-.73.07-.27.18-.52.35-.76.16-.23.39-.43.65-.59.27-.16.61-.24,1.02-.24.08,0,.17,0,.27.03.1.02.18.06.27.13.08.06.15.14.2.25s.08.23.08.39c0,.14-.04.25-.11.32-.06.08-.13.11-.18.11-.06,0-.1-.02-.11-.06s-.02-.13-.02-.25c0-.1-.04-.18-.11-.27-.08-.08-.21-.12-.41-.12-.14,0-.25.06-.35.19-.1.13-.18.3-.26.49s-.12.41-.15.63c-.03.23-.05.43-.05.62,0,.45.08.8.23,1.07s.42.4.79.4c.11,0,.23-.03.36-.1.12-.06.25-.15.38-.26s.26-.22.39-.34.27-.23.39-.34l.2.31c-.11.1-.23.21-.38.35h0Z"/>
  <path class="st1" d="M86.4,38.12c-.14.14-.29.28-.45.41-.16.14-.33.25-.51.35-.18.1-.35.14-.53.14-.11,0-.22-.05-.3-.14s-.14-.18-.17-.27c-.09.1-.21.19-.35.27-.14.08-.31.11-.49.11-.23,0-.43-.05-.59-.14s-.31-.22-.43-.36-.2-.31-.26-.47c-.06-.17-.09-.32-.09-.46,0-.39.04-.74.13-1.07.09-.33.22-.61.39-.86s.41-.43.68-.58.6-.22.99-.23c.06,0,.1,0,.14-.02s.09-.04.13-.06.09-.04.14-.06.12-.02.2-.02h.17c.07,0,.14.02.2.03s.12.05.16.08c.04.04.06.09.06.17,0,.47-.02.96-.05,1.47-.02.52-.04,1.1-.07,1.73,0,.02,0,.04.02.04.04,0,.1-.03.19-.09.09-.06.19-.13.3-.21.1-.08.21-.15.31-.23s.18-.12.23-.14l.2.31c-.11.08-.23.19-.38.34M84.43,37.05v-.63c0-.25,0-.61,0-1.06,0-.05-.03-.08-.11-.09-.07,0-.14-.02-.18-.02-.16,0-.28.05-.36.14s-.14.21-.18.35-.06.31-.06.48,0,.35,0,.52c0,.14,0,.31.02.5,0,.18.05.36.1.52.05.17.12.31.22.42.1.11.23.17.39.17.06,0,.11-.02.14-.06s.05-.09.06-.15v-1.09h0Z"/>
  <path class="st0" d="M86.4,38.12c-.14.14-.29.28-.45.41-.16.14-.33.25-.51.35-.18.1-.35.14-.53.14-.11,0-.22-.05-.3-.14s-.14-.18-.17-.27c-.09.1-.21.19-.35.27-.14.08-.31.11-.49.11-.23,0-.43-.05-.59-.14s-.31-.22-.43-.36-.2-.31-.26-.47c-.06-.17-.09-.32-.09-.46,0-.39.04-.74.13-1.07.09-.33.22-.61.39-.86s.41-.43.68-.58.6-.22.99-.23c.06,0,.1,0,.14-.02s.09-.04.13-.06.09-.04.14-.06.12-.02.2-.02h.17c.07,0,.14.02.2.03s.12.05.16.08c.04.04.06.09.06.17,0,.47-.02.96-.05,1.47-.02.52-.04,1.1-.07,1.73,0,.02,0,.04.02.04.04,0,.1-.03.19-.09.09-.06.19-.13.3-.21.1-.08.21-.15.31-.23s.18-.12.23-.14l.2.31c-.11.08-.23.19-.38.34v-.03ZM84.43,37.05v-.63c0-.25,0-.61,0-1.06,0-.05-.03-.08-.11-.09-.07,0-.14-.02-.18-.02-.16,0-.28.05-.36.14s-.14.21-.18.35-.06.31-.06.48,0,.35,0,.52c0,.14,0,.31.02.5,0,.18.05.36.1.52.05.17.12.31.22.42.1.11.23.17.39.17.06,0,.11-.02.14-.06s.05-.09.06-.15v-1.09h0Z"/>
  <path class="st1" d="M89.41,38.12c-.14.14-.29.28-.45.41-.16.14-.33.25-.51.35s-.35.14-.53.14c-.11,0-.2-.03-.27-.09s-.11-.13-.14-.22-.05-.18-.05-.28,0-.19,0-.28v-.82c0-.1,0-.18,0-.28,0-.1,0-.22,0-.36v-2.23c0-.1,0-.22,0-.34,0-.12,0-.27,0-.46s0-.43.02-.71c0-.28,0-.63.02-1.06,0-.09.03-.16.1-.21s.14-.08.23-.11c.09-.02.18-.04.27-.04h.21c.13,0,.25.03.35.09.11.06.16.14.15.27-.02.31-.04.73-.06,1.27-.02.23-.02.5-.04.81,0,.31-.02.66-.05,1.05-.02.39-.03.84-.06,1.32-.02.48-.03,1.02-.06,1.62,0,.02,0,.06-.02.11s-.02.1-.02.12c0,.02,0,.02,0,.02.04,0,.1-.03.19-.1s.19-.14.31-.23.22-.17.32-.25.18-.13.24-.15l.2.31c-.11.08-.23.19-.38.34"/>
  <path class="st0" d="M89.41,38.12c-.14.14-.29.28-.45.41-.16.14-.33.25-.51.35s-.35.14-.53.14c-.11,0-.2-.03-.27-.09s-.11-.13-.14-.22-.05-.18-.05-.28,0-.19,0-.28v-.82c0-.1,0-.18,0-.28,0-.1,0-.22,0-.36v-2.23c0-.1,0-.22,0-.34,0-.12,0-.27,0-.46s0-.43.02-.71c0-.28,0-.63.02-1.06,0-.09.03-.16.1-.21s.14-.08.23-.11c.09-.02.18-.04.27-.04h.21c.13,0,.25.03.35.09.11.06.16.14.15.27-.02.31-.04.73-.06,1.27-.02.23-.02.5-.04.81,0,.31-.02.66-.05,1.05-.02.39-.03.84-.06,1.32-.02.48-.03,1.02-.06,1.62,0,.02,0,.06-.02.11s-.02.1-.02.12c0,.02,0,.02,0,.02.04,0,.1-.03.19-.1s.19-.14.31-.23.22-.17.32-.25.18-.13.24-.15l.2.31c-.11.08-.23.19-.38.34h0Z"/>
  <path class="st1" d="M97.09,38.12c-.14.14-.29.28-.45.41-.16.14-.33.25-.51.35s-.35.14-.53.14c-.11,0-.22-.05-.3-.14s-.14-.18-.17-.27c-.09.1-.21.19-.35.27s-.31.11-.49.11c-.23,0-.43-.06-.59-.18s-.31-.27-.43-.46-.2-.37-.26-.55-.09-.35-.09-.5c0-.39.04-.74.13-1.07.09-.33.22-.61.39-.85s.4-.43.68-.57c.27-.14.6-.21.97-.22v.06-.33c0-.07,0-.14,0-.22v-1.37s0-.09,0-.15,0-.14,0-.25,0-.23,0-.39c0-.09.03-.16.09-.21s.12-.08.2-.11c.07-.02.15-.04.23-.04h.19c.06,0,.13,0,.21.02s.14.04.21.06c.06.03.12.06.16.11.04.04.06.1.06.15-.02.3-.05.73-.07,1.29-.02.47-.06,1.11-.09,1.91s-.07,1.81-.11,3.03c0,.02,0,.04.02.04.04,0,.1-.03.19-.09.09-.06.19-.13.3-.21.1-.08.21-.15.31-.23s.18-.12.23-.14l.2.31c-.11.09-.23.2-.38.34M95.12,36.8v-.63c0-.25,0-.61,0-1.06,0-.05-.03-.08-.11-.09s-.14-.02-.18-.02c-.16,0-.28.05-.36.14-.08.09-.14.21-.18.35s-.06.31-.06.48,0,.35,0,.52c0,.14,0,.32.02.54.02.22.05.42.1.62s.12.37.22.5c.1.14.23.21.39.21.06,0,.11-.02.14-.06.02-.03.05-.09.06-.15v-1.35h0Z"/>
  <path class="st0" d="M97.09,38.12c-.14.14-.29.28-.45.41-.16.14-.33.25-.51.35s-.35.14-.53.14c-.11,0-.22-.05-.3-.14s-.14-.18-.17-.27c-.09.1-.21.19-.35.27s-.31.11-.49.11c-.23,0-.43-.06-.59-.18s-.31-.27-.43-.46-.2-.37-.26-.55-.09-.35-.09-.5c0-.39.04-.74.13-1.07.09-.33.22-.61.39-.85s.4-.43.68-.57c.27-.14.6-.21.97-.22v.06-.33c0-.07,0-.14,0-.22v-1.37s0-.09,0-.15,0-.14,0-.25,0-.23,0-.39c0-.09.03-.16.09-.21s.12-.08.2-.11c.07-.02.15-.04.23-.04h.19c.06,0,.13,0,.21.02s.14.04.21.06c.06.03.12.06.16.11.04.04.06.1.06.15-.02.3-.05.73-.07,1.29-.02.47-.06,1.11-.09,1.91s-.07,1.81-.11,3.03c0,.02,0,.04.02.04.04,0,.1-.03.19-.09.09-.06.19-.13.3-.21.1-.08.21-.15.31-.23s.18-.12.23-.14l.2.31c-.11.09-.23.2-.38.34h0v-.03ZM95.12,36.8v-.63c0-.25,0-.61,0-1.06,0-.05-.03-.08-.11-.09s-.14-.02-.18-.02c-.16,0-.28.05-.36.14-.08.09-.14.21-.18.35s-.06.31-.06.48,0,.35,0,.52c0,.14,0,.32.02.54.02.22.05.42.1.62.05.19.12.36.22.5.1.14.23.21.39.21.06,0,.11-.02.14-.06.02-.03.05-.09.06-.15v-1.35h0Z"/>
  <path class="st1" d="M101.99,37.7c-.1.09-.2.18-.31.29s-.22.21-.33.31c-.11.1-.21.18-.29.25-.06.06-.15.14-.26.2-.1.07-.23.13-.35.18s-.27.1-.42.14-.29.06-.44.06c-.34,0-.62-.06-.83-.18-.21-.11-.37-.27-.49-.47-.11-.19-.19-.43-.23-.68s-.06-.53-.06-.82v-.09c0-.26.04-.52.11-.8s.19-.52.35-.75c.16-.23.38-.41.65-.55s.6-.22,1-.22c.17,0,.32.05.46.13.14.09.25.2.35.35.1.14.17.3.22.46.05.17.08.34.08.5,0,.09-.02.18-.05.29s-.07.21-.12.3c-.05.09-.11.17-.17.23-.06.06-.12.09-.18.09-.1,0-.21-.02-.31-.06-.1-.04-.21-.1-.31-.15-.1-.06-.18-.12-.27-.18-.09-.06-.16-.11-.22-.15-.04-.02-.06-.06-.06-.12,0-.06.02-.12.05-.18s.07-.09.12-.09c.02,0,.03,0,.03,0,.17.14.31.22.44.22.1,0,.18-.05.22-.14.04-.1.06-.22.06-.35,0-.06,0-.14-.02-.21s-.05-.14-.09-.21c-.04-.06-.1-.12-.16-.16-.06-.04-.15-.07-.25-.08-.13.02-.24.1-.34.23-.1.14-.18.3-.24.49s-.11.4-.14.63-.05.44-.05.64c0,.45.08.8.23,1.07.15.27.42.4.79.4.11,0,.25-.05.41-.15.16-.1.32-.22.49-.36.17-.14.34-.29.5-.43.17-.15.31-.28.45-.39l.2.31c-.06.05-.13.12-.23.21"/>
  <path class="st0" d="M101.99,37.7c-.1.09-.2.18-.31.29s-.22.21-.33.31c-.11.1-.21.18-.29.25-.06.06-.15.14-.26.2-.1.07-.23.13-.35.18s-.27.1-.42.14-.29.06-.44.06c-.34,0-.62-.06-.83-.18-.21-.11-.37-.27-.49-.47-.11-.19-.19-.43-.23-.68s-.06-.53-.06-.82v-.09c0-.26.04-.52.11-.8s.19-.52.35-.75c.16-.23.38-.41.65-.55s.6-.22,1-.22c.17,0,.32.05.46.13.14.09.25.2.35.35.1.14.17.3.22.46.05.17.08.34.08.5,0,.09-.02.18-.05.29s-.07.21-.12.3c-.05.09-.11.17-.17.23-.06.06-.12.09-.18.09-.1,0-.21-.02-.31-.06-.1-.04-.21-.1-.31-.15-.1-.06-.18-.12-.27-.18-.09-.06-.16-.11-.22-.15-.04-.02-.06-.06-.06-.12,0-.06.02-.12.05-.18s.07-.09.12-.09c.02,0,.03,0,.03,0,.17.14.31.22.44.22.1,0,.18-.05.22-.14.04-.1.06-.22.06-.35,0-.06,0-.14-.02-.21s-.05-.14-.09-.21c-.04-.06-.1-.12-.16-.16-.06-.04-.15-.07-.25-.08-.13.02-.24.1-.34.23-.1.14-.18.3-.24.49s-.11.4-.14.63-.05.44-.05.64c0,.45.08.8.23,1.07.15.27.42.4.79.4.11,0,.25-.05.41-.15.16-.1.32-.22.49-.36.17-.14.34-.29.5-.43.17-.15.31-.28.45-.39l.2.31c-.06.05-.13.12-.23.21l.02.02Z"/>
  <path class="st1" d="M105.56,37.46c-.18.32-.37.6-.59.84-.22.24-.46.43-.72.56s-.56.21-.89.21c-.14,0-.26-.02-.37-.08-.11-.05-.2-.12-.28-.2s-.14-.18-.18-.28c-.04-.1-.06-.21-.06-.31,0-.18.03-.31.1-.41s.13-.15.18-.15c0,0,.02.02.02.06,0,.06,0,.14.02.25s.05.21.1.31c.05.1.12.19.21.27.09.08.2.11.35.11.1,0,.19-.05.28-.15s.14-.23.14-.38c0-.08-.02-.18-.07-.28l-.72-1.05c-.06-.12-.11-.23-.14-.31-.02-.08-.04-.16-.04-.23,0-.06,0-.1.02-.16s.03-.12.06-.21c.02-.03.05-.11.08-.23s.06-.25.09-.39c.03-.14.06-.27.08-.39.02-.12.03-.21.03-.26h.25c.04.36.14.67.27.92.14.25.29.48.44.7s.29.42.4.62.18.43.18.68v.27s0,.06,0,.06c.03,0,.07-.04.13-.11.06-.08.11-.17.18-.29.06-.11.14-.25.21-.39s.14-.28.21-.42c.06-.14.13-.26.18-.36.05-.11.09-.19.12-.25l.19.39c-.15.37-.31.72-.49,1.04"/>
  <path class="st0" d="M105.56,37.46c-.18.32-.37.6-.59.84-.22.24-.46.43-.72.56s-.56.21-.89.21c-.14,0-.26-.02-.37-.08-.11-.05-.2-.12-.28-.2s-.14-.18-.18-.28c-.04-.1-.06-.21-.06-.31,0-.18.03-.31.1-.41s.13-.15.18-.15c0,0,.02.02.02.06,0,.06,0,.14.02.25s.05.21.1.31c.05.1.12.19.21.27.09.08.2.11.35.11.1,0,.19-.05.28-.15s.14-.23.14-.38c0-.08-.02-.18-.07-.28l-.72-1.05c-.06-.12-.11-.23-.14-.31-.02-.08-.04-.16-.04-.23,0-.06,0-.1.02-.16s.03-.12.06-.21c.02-.03.05-.11.08-.23s.06-.25.09-.39c.03-.14.06-.27.08-.39.02-.12.03-.21.03-.26h.25c.04.36.14.67.27.92.14.25.29.48.44.7s.29.42.4.62.18.43.18.68v.27s0,.06,0,.06c.03,0,.07-.04.13-.11.06-.08.11-.17.18-.29.06-.11.14-.25.21-.39s.14-.28.21-.42c.06-.14.13-.26.18-.36.05-.11.09-.19.12-.25l.19.39c-.15.37-.31.72-.49,1.04h.02Z"/>
  <path class="st1" d="M108.47,38.12c-.14.14-.29.28-.45.41-.16.14-.33.25-.51.35s-.35.14-.53.14c-.11,0-.21-.03-.27-.09-.06-.06-.11-.13-.14-.22s-.05-.18-.05-.28,0-.19,0-.28v-.95c0-.14,0-.27,0-.41,0-.14,0-.3,0-.47s0-.38,0-.61v-.83c0-.09.06-.14.18-.18s.25-.06.39-.06c.16,0,.31.02.43.06.13.04.2.1.21.18l-.12,3.28s0,.02,0,.02c.04,0,.1-.03.19-.1s.19-.14.31-.22c.11-.08.22-.15.31-.23s.18-.13.23-.15l.2.31c-.11.09-.23.2-.38.34M107.74,33.41c0,.08,0,.16-.02.24s-.05.15-.1.22c-.05.06-.1.11-.18.15-.08.04-.18.06-.31.06-.21,0-.36-.06-.46-.18-.09-.11-.14-.27-.14-.46,0-.21.05-.38.14-.51.09-.14.26-.21.51-.21.16,0,.29.05.39.15s.15.28.16.53"/>
  <path class="st0" d="M108.47,38.12c-.14.14-.29.28-.45.41-.16.14-.33.25-.51.35s-.35.14-.53.14c-.11,0-.21-.03-.27-.09-.06-.06-.11-.13-.14-.22s-.05-.18-.05-.28,0-.19,0-.28v-.95c0-.14,0-.27,0-.41,0-.14,0-.3,0-.47s0-.38,0-.61v-.83c0-.09.06-.14.18-.18s.25-.06.39-.06c.16,0,.31.02.43.06.13.04.2.1.21.18l-.12,3.28s0,.02,0,.02c.04,0,.1-.03.19-.1s.19-.14.31-.22c.11-.08.22-.15.31-.23s.18-.13.23-.15l.2.31c-.11.09-.23.2-.38.34h0ZM107.74,33.41c0,.08,0,.16-.02.24s-.05.15-.1.22c-.05.06-.1.11-.18.15-.08.04-.18.06-.31.06-.21,0-.36-.06-.46-.18-.09-.11-.14-.27-.14-.46,0-.21.05-.38.14-.51.09-.14.26-.21.51-.21.16,0,.29.05.39.15s.15.28.16.53h0Z"/>
  <path class="st1" d="M113.66,37.71c-.1.09-.19.18-.3.28-.1.1-.22.19-.33.28-.11.09-.23.18-.35.25v.16c0,.26-.04.51-.11.78-.08.27-.19.5-.35.72-.16.21-.36.39-.6.52-.24.14-.53.21-.86.21-.27,0-.5-.08-.68-.25-.19-.16-.28-.4-.28-.72,0-.07.02-.15.04-.23.02-.08.06-.16.1-.23.05-.07.1-.13.17-.18.06-.05.14-.07.23-.07.06,0,.09.03.09.09,0,.05-.02.1-.02.15,0,.05,0,.1,0,.16,0,.11,0,.22.03.33s.06.21.1.3.11.16.2.22.18.09.31.09c.09,0,.17-.02.24-.06s.13-.12.18-.23.08-.25.1-.42.03-.39.03-.66v-.27c0-.06,0-.17-.02-.32-.09.1-.21.19-.35.27s-.31.1-.48.1c-.23,0-.43-.06-.59-.16-.17-.11-.31-.24-.43-.39-.11-.15-.2-.32-.26-.5-.06-.18-.09-.34-.09-.47,0-.39.04-.74.13-1.06s.22-.61.39-.85.41-.43.68-.58.6-.22.99-.23c.13,0,.23,0,.31-.02.07-.02.14-.04.19-.06s.11-.05.16-.06c.06-.02.12-.02.21-.02s.16.02.24.05c.07.03.11.11.11.25,0,.06,0,.18,0,.38,0,.2-.02.43-.02.72s-.02.59-.03.92-.02.68-.02,1.01t0,.02s.1-.03.19-.1c.09-.06.19-.14.3-.22s.21-.15.31-.23c.1-.08.18-.13.23-.15l.2.31c-.08.06-.17.14-.26.23M111.55,36.98v-.63c0-.26,0-.61,0-1.07,0-.05-.03-.08-.11-.09s-.14-.02-.18-.02c-.16,0-.28.05-.36.14-.08.09-.14.21-.18.35s-.06.31-.06.48,0,.35,0,.52c0,.14,0,.32.02.51s.05.38.1.55.12.32.22.44c.1.12.23.18.39.18.06,0,.11-.02.14-.06.02-.03.05-.09.06-.15v-1.18h0Z"/>
  <path class="st0" d="M113.66,37.71c-.1.09-.19.18-.3.28-.1.1-.22.19-.33.28-.11.09-.23.18-.35.25v.16c0,.26-.04.51-.11.78-.08.27-.19.5-.35.72-.16.21-.36.39-.6.52-.24.14-.53.21-.86.21-.27,0-.5-.08-.68-.25-.19-.16-.28-.4-.28-.72,0-.07.02-.15.04-.23.02-.08.06-.16.1-.23.05-.07.1-.13.17-.18.06-.05.14-.07.23-.07.06,0,.09.03.09.09,0,.05-.02.1-.02.15,0,.05,0,.1,0,.16,0,.11,0,.22.03.33s.06.21.1.3.11.16.2.22.18.09.31.09c.09,0,.17-.02.24-.06s.13-.12.18-.23.08-.25.1-.42.03-.39.03-.66v-.27c0-.06,0-.17-.02-.32-.09.1-.21.19-.35.27s-.31.1-.48.1c-.23,0-.43-.06-.59-.16-.17-.11-.31-.24-.43-.39-.11-.15-.2-.32-.26-.5-.06-.18-.09-.34-.09-.47,0-.39.04-.74.13-1.06s.22-.61.39-.85.41-.43.68-.58.6-.22.99-.23c.13,0,.23,0,.31-.02.07-.02.14-.04.19-.06s.11-.05.16-.06c.06-.02.12-.02.21-.02s.16.02.24.05c.07.03.11.11.11.25,0,.06,0,.18,0,.38,0,.2-.02.43-.02.72s-.02.59-.03.92-.02.68-.02,1.01t0,.02s.1-.03.19-.1c.09-.06.19-.14.3-.22s.21-.15.31-.23c.1-.08.18-.13.23-.15l.2.31c-.08.06-.17.14-.27.23l-.02-.03ZM111.55,36.98v-.63c0-.25,0-.61,0-1.07,0-.05-.03-.08-.11-.09-.07,0-.14-.02-.18-.02-.16,0-.28.05-.36.14s-.14.21-.18.35-.06.31-.07.48c0,.18,0,.35,0,.52,0,.14,0,.32.02.51s.05.38.1.55.12.32.22.44c.1.12.23.18.39.18.06,0,.11-.02.14-.06.02-.03.05-.09.06-.15v-1.18h.02Z"/>
  <path class="st1" d="M118.43,38.12c-.14.14-.29.28-.45.41-.16.14-.33.25-.51.35s-.35.14-.53.14c-.11,0-.2-.02-.27-.08-.07-.05-.13-.12-.17-.19-.04-.08-.07-.17-.08-.27-.02-.1-.02-.19,0-.28l.05-2.1c0-.15,0-.28-.04-.38-.03-.1-.07-.15-.12-.15-.16,0-.29.1-.38.31s-.15.47-.2.8-.08.67-.1,1.05c-.02.39-.05.75-.07,1.09v.12s-.03.04-.09.06-.11.02-.18.02-.13,0-.19,0h-.24s-.1,0-.15-.02c-.05,0-.1-.02-.13-.05-.04-.02-.06-.05-.06-.09v-4.01c0-.11.06-.19.18-.24s.25-.08.39-.08c.15,0,.29.02.41.08s.18.14.18.24v.54l.07-.13c.06-.1.11-.19.17-.28.06-.09.13-.16.21-.23.08-.06.18-.11.3-.15s.27-.06.45-.06c.13,0,.24.02.34.08.1.05.18.12.25.21.06.09.12.18.15.3.04.11.06.23.06.35,0,.14,0,.32-.02.55,0,.24-.02.48-.04.75-.02.26-.02.51-.03.76,0,.24-.02.44-.02.59,0,.03,0,.05.02.05.03,0,.1-.03.19-.1.09-.06.19-.14.3-.22.1-.08.21-.15.31-.23.1-.08.18-.13.23-.15l.2.3c-.1.09-.23.2-.37.34"/>
  <path class="st0" d="M118.43,38.12c-.14.14-.29.28-.45.41-.16.14-.33.25-.51.35s-.35.14-.53.14c-.11,0-.2-.02-.27-.08-.07-.05-.13-.12-.17-.19-.04-.08-.07-.17-.08-.27-.02-.1-.02-.19,0-.28l.05-2.1c0-.15,0-.28-.04-.38-.03-.1-.07-.15-.12-.15-.16,0-.29.1-.38.31s-.15.47-.2.8-.08.67-.1,1.05c-.02.39-.05.75-.07,1.09v.12s-.03.04-.09.06-.11.02-.18.02-.13,0-.19,0h-.24s-.1,0-.15-.02c-.05,0-.1-.02-.13-.05-.04-.02-.06-.05-.06-.09v-4.01c0-.11.06-.19.18-.24s.25-.08.39-.08c.15,0,.29.02.41.08s.18.14.18.24v.54l.07-.13c.06-.1.11-.19.17-.28.06-.09.13-.16.21-.23.08-.06.18-.11.3-.15s.27-.06.45-.06c.13,0,.24.02.34.08.1.05.18.12.25.21.06.09.12.18.15.3.04.11.06.23.06.35,0,.14,0,.32-.02.55,0,.24-.02.48-.04.75-.02.26-.02.51-.03.76,0,.24-.02.44-.02.59,0,.03,0,.05.02.05.03,0,.1-.03.19-.1.09-.06.19-.14.3-.22.1-.08.21-.15.31-.23.1-.08.18-.13.23-.15l.2.3c-.1.09-.23.2-.37.34h-.04Z"/>
</svg>