<?xml version="1.0" encoding="UTF-8"?>
<svg id="_レイヤー_1" data-name="レイヤー_1" xmlns="http://www.w3.org/2000/svg" version="1.1" viewBox="0 0 332.68 176.15">
  <!-- Generator: Adobe Illustrator 30.3.0, SVG Export Plug-In . SVG Version: 2.1.3 Build 182)  -->
  <defs>
    <style>
      .st0 {
        fill: #fff;
      }
    </style>
  </defs>
  <g>
    <path class="st0" d="M116.07,108.51c13.62,2.11,18.53-4.89,20.21-5.05.58-.06,1.13,1.56.99,2.15-5.16,7.47-12.83,11.33-21.91,11.64-8.01.06-15.6-2.25-22.94-5.55l-21.73-9.79c-8.66-3.9-18.07-3.78-27.24-1.32-.35-.8-.69-2.53-.14-2.85l2.5-1.49c1.7-1.01,5.01-2.04,5.56-4.22,1.2-4.78,1.07-9.51,1.06-14.46l-.06-43.29c0-1.23-.81-3.08-1.51-3.73-2.61-2.44-14.7-1.27-18.27,7.43-2.5,6.08-.49,13.1,5.78,15.34l4.43.32c.43,2.23-.83,3.87-2.91,4.78-6.19,2.72-13.47-.56-15.78-7.19-3.08-8.88,1.24-18.09,9.52-22.72,4.63-2.59,10.11-3.57,15.65-3.57h33.93s12.7-.77,12.7-.77l2.03,16.62c.07.61-.93,1.89-1.54,1.93s-1.81-.91-1.92-1.55c-1.03-5.77-5.44-10.59-11.41-10.72l-16.87-.36-.18,28.02c9,.16,17.39,1.8,18.97-6.35.12-.61.97-1.63,1.51-1.76.72-.18,1.77.95,1.77,1.75l.14,18.89c0,.62-.75,1.85-1.31,1.81-3.01-.26-.64-7.3-8.61-8.91l-12.53-.12.34,30.52c17.8,2.08,32.63,11.03,49.77,14.59Z"/>
    <path class="st0" d="M173.85,57.83c0,4.78-.81,9.1-2.44,12.95-1.63,3.85-3.73,7.07-6.29,9.64-2.57,2.57-5.32,4.5-8.25,5.81-6.18,2.73-13.74,4.1-22.69,4.1h-30.2v-4.49c2.8,0,4.91-.27,6.34-.8,1.43-.54,2.37-1.34,2.81-2.42s.66-2.6.66-4.59v-41.76c0-2.86-.59-4.88-1.76-6.05s-3.85-1.76-8.05-1.76v-4.59l14.2-.29c.49,0,2.47-.03,5.95-.1,3.48-.06,5.5-.1,6.05-.1,5.43,0,10.04.29,13.83.88,3.79.58,7.26,1.53,10.42,2.83,2.89,1.17,5.56,2.8,8,4.9,2.44,2.1,4.5,4.49,6.17,7.17,1.67,2.68,2.97,5.6,3.88,8.76.91,3.16,1.37,6.46,1.37,9.9ZM158.05,57.54c0-6.86-1.31-12.61-3.93-17.25-2.62-4.63-6.17-7.85-10.66-9.64-1.95-.78-4.03-1.28-6.22-1.49-2.2-.21-5.34-.32-9.44-.32v46.5c0,2.67.13,4.61.39,5.83.26,1.22,1.02,2.15,2.29,2.78,1.27.63,3.24.95,5.9.95,7.9,0,13.49-2.76,16.76-8.29,3.27-5.53,4.9-11.89,4.9-19.08Z"/>
    <path class="st0" d="M244.82,28.65c-3.16,0-5.42.32-6.78.95-1.37.63-2.21,1.57-2.54,2.8-.33,1.24-.49,3.25-.49,6.05v52.45h-4.49l-43.28-51.43v36.45c0,2.77.17,4.77.51,6.03.34,1.25,1.21,2.21,2.61,2.88,1.4.67,3.66,1,6.78,1v4.49h-24.59v-4.49c2.93,0,5.05-.33,6.37-1,1.32-.67,2.13-1.63,2.44-2.88.31-1.25.46-3.26.46-6.03v-33.76c0-2.73-.07-4.78-.22-6.15s-.5-2.56-1.05-3.59c-.55-1.02-1.46-1.85-2.71-2.49-1.25-.63-2.98-1.06-5.2-1.29v-4.49h19.27l37.67,44.5v-30.2c0-2.47-.17-4.37-.51-5.68-.34-1.32-1.19-2.33-2.54-3.05-1.35-.72-3.49-1.07-6.42-1.07v-4.49h24.69v4.49Z"/>
    <path class="st0" d="M307.09,90.33h-31.18v-4.49c2.63,0,4.55-.19,5.76-.56,1.2-.37,1.81-1.26,1.81-2.66,0-.98-.2-1.97-.59-2.98l-3.12-7.81h-21.47l-1.61,4.29c-.91,2.41-1.37,4.15-1.37,5.22,0,1.95.76,3.19,2.27,3.71,1.51.52,3.28.78,5.29.78v4.49h-22.79v-4.49c1.82,0,3.37-.34,4.64-1.02,1.27-.68,2.48-1.98,3.63-3.88,1.15-1.9,2.4-4.59,3.73-8.08l19.08-49.96h4.64l20.15,51.52c1.46,3.64,2.54,6.11,3.22,7.39.68,1.29,1.62,2.28,2.83,2.98,1.2.7,2.89,1.05,5.07,1.05v4.49ZM278.01,67.05l-9.12-23.08-8.68,23.08h17.81Z"/>
  </g>
  <g>
    <path class="st0" d="M103.78,145.64c0,2.03-.52,3.69-1.55,4.98-1.03,1.29-2.34,2.27-3.93,2.94-1.59.67-3.14,1.11-4.65,1.32-1.51.21-2.97.32-4.38.32h-18.17v-2.46c1.55,0,2.69-.16,3.43-.48.74-.32,1.22-.77,1.44-1.36.22-.59.33-1.4.33-2.43v-22.87c0-1.6-.33-2.72-.99-3.34-.66-.62-2.07-.93-4.22-.93v-2.51c2.58-.05,5.04-.11,7.37-.16,2.33-.05,4.25-.09,5.76-.12,1.5-.03,2.56-.04,3.17-.04h.99c1.85,0,3.79.19,5.81.57,2.02.38,3.86,1.25,5.53,2.6,1.67,1.35,2.5,3.3,2.5,5.85,0,1.91-.68,3.54-2.03,4.92s-3.57,2.5-6.65,3.39c2.1.37,3.93,1,5.49,1.88,1.56.88,2.74,2,3.54,3.35.8,1.35,1.2,2.88,1.2,4.57ZM94.59,127.74c0-1.25-.3-2.34-.9-3.27s-1.48-1.67-2.64-2.19c-1.17-.53-2.6-.79-4.29-.79h-2.81v12.98h2.19c2.87,0,4.99-.61,6.37-1.82,1.38-1.21,2.07-2.85,2.07-4.92ZM95.58,145.19c0-2.46-.64-4.37-1.91-5.73-1.27-1.36-3.07-2.04-5.38-2.04h-4.33v9.43c0,1.32.08,2.35.24,3.09.16.74.56,1.31,1.2,1.71s1.66.6,3.05.6c1.85,0,3.5-.56,4.96-1.68,1.45-1.12,2.18-2.91,2.18-5.37Z"/>
    <path class="st0" d="M150.88,137.09c0,3.3-.78,6.38-2.35,9.26-1.57,2.88-3.89,5.18-6.96,6.92-3.07,1.74-6.7,2.6-10.89,2.6-3.42,0-6.43-.55-9.03-1.66-2.6-1.1-4.73-2.58-6.37-4.43-1.65-1.85-2.87-3.88-3.66-6.09-.79-2.21-1.19-4.43-1.19-6.65,0-3.22.76-6.27,2.27-9.14,1.51-2.87,3.79-5.18,6.84-6.93,3.05-1.75,6.69-2.63,10.93-2.63,3.87,0,7.15.63,9.86,1.9s4.82,2.86,6.33,4.78c1.51,1.92,2.6,3.94,3.25,6.05s.98,4.12.98,6.02ZM142.22,136.98c0-2.03-.17-3.95-.52-5.77-.35-1.82-.96-3.46-1.83-4.93s-2.07-2.64-3.58-3.5c-1.51-.86-3.38-1.3-5.61-1.3-3.06,0-5.46.76-7.17,2.28-1.72,1.52-2.89,3.43-3.5,5.72s-.92,4.79-.92,7.49c0,1.5.1,3.05.29,4.68.2,1.62.67,3.28,1.42,4.98.75,1.7,1.94,3.14,3.58,4.3,1.64,1.17,3.76,1.75,6.36,1.75s4.68-.6,6.29-1.8c1.61-1.2,2.79-2.67,3.53-4.41.74-1.74,1.2-3.4,1.39-4.98.19-1.59.28-3.09.28-4.51Z"/>
    <path class="st0" d="M198.65,137.09c0,3.3-.78,6.38-2.35,9.26-1.57,2.88-3.89,5.18-6.96,6.92-3.07,1.74-6.7,2.6-10.89,2.6-3.42,0-6.43-.55-9.03-1.66-2.6-1.1-4.73-2.58-6.37-4.43-1.65-1.85-2.87-3.88-3.66-6.09-.79-2.21-1.19-4.43-1.19-6.65,0-3.22.76-6.27,2.27-9.14,1.51-2.87,3.79-5.18,6.84-6.93,3.05-1.75,6.69-2.63,10.93-2.63,3.87,0,7.15.63,9.86,1.9s4.82,2.86,6.33,4.78c1.51,1.92,2.6,3.94,3.25,6.05s.98,4.12.98,6.02ZM189.99,136.98c0-2.03-.17-3.95-.52-5.77-.35-1.82-.96-3.46-1.83-4.93s-2.07-2.64-3.58-3.5c-1.51-.86-3.38-1.3-5.61-1.3-3.06,0-5.46.76-7.17,2.28-1.72,1.52-2.89,3.43-3.5,5.72s-.92,4.79-.92,7.49c0,1.5.1,3.05.29,4.68.2,1.62.67,3.28,1.42,4.98.75,1.7,1.94,3.14,3.58,4.3,1.64,1.17,3.76,1.75,6.36,1.75s4.68-.6,6.29-1.8c1.61-1.2,2.79-2.67,3.53-4.41.74-1.74,1.2-3.4,1.39-4.98.19-1.59.28-3.09.28-4.51Z"/>
    <path class="st0" d="M245.86,155.21h-20.12v-2.46h1.63c1.39,0,2.34-.08,2.85-.25.51-.17.76-.47.76-.9,0-.62-.73-1.96-2.19-4.01l-7.77-10.98-4.6,4.03v7.83c0,1.59.37,2.69,1.1,3.33.73.63,2.12.95,4.17.95v2.46h-18.11v-2.46c1.55,0,2.69-.16,3.43-.48.74-.32,1.22-.77,1.44-1.36s.33-1.4.33-2.43v-22.76c0-1.03-.1-1.84-.31-2.42-.2-.58-.69-1.03-1.44-1.36s-1.91-.49-3.46-.49v-2.46h18.11v2.46c-2.23,0-3.66.32-4.3.96s-.96,1.75-.96,3.31v10.9l11.27-9.86c.78-.68,1.35-1.26,1.71-1.75.36-.49.53-1.04.53-1.64,0-1.28-1.22-1.92-3.66-1.92v-2.46h16.54v2.46c-1.28.11-2.33.26-3.14.45-.81.2-1.6.52-2.36.96-.77.45-1.6,1.03-2.51,1.76-.91.73-2.34,1.95-4.3,3.66l-3.79,3.29,10.69,15.23c1.14,1.62,2.07,2.83,2.81,3.62.73.79,1.51,1.37,2.35,1.72.84.36,1.94.56,3.31.61v2.46Z"/>
    <path class="st0" d="M276.6,144.81c0,1.12-.24,2.31-.72,3.57-.48,1.26-1.21,2.46-2.18,3.61-.97,1.15-2.2,2.08-3.67,2.81-1.48.72-3.19,1.08-5.13,1.08s-3.83-.42-5.73-1.26c-1.9-.84-3.5-2.08-4.82-3.74-.57,1.32-.94,2.54-1.1,3.66h-2.46v-12.4h2.46c.44,1.78,1.06,3.46,1.84,5.02.78,1.57,1.89,2.92,3.33,4.05,1.43,1.13,3.19,1.7,5.28,1.7,1.82,0,3.27-.5,4.37-1.5,1.1-1,1.64-2.25,1.64-3.77,0-.86-.17-1.6-.51-2.24-.34-.64-.83-1.22-1.47-1.72s-1.52-1.05-2.63-1.63c-1.11-.58-2.38-1.19-3.81-1.83-2.19-1.03-3.99-2.07-5.4-3.13-1.41-1.05-2.47-2.07-3.19-3.06-.72-.99-1.22-1.93-1.5-2.82-.28-.89-.41-1.79-.41-2.7,0-1.62.44-3.22,1.31-4.8.87-1.58,2.15-2.87,3.83-3.87,1.68-1.01,3.63-1.51,5.84-1.51,1.69,0,3.3.38,4.84,1.14,1.53.76,2.86,1.79,3.98,3.11.32-.75.61-1.8.88-3.15h2.51v10.1h-2.51c-1.78-5.5-4.88-8.26-9.3-8.26-1.6,0-2.89.42-3.86,1.27-.97.85-1.46,1.94-1.46,3.27,0,1.05.3,1.96.91,2.74.61.77,1.4,1.44,2.39,1.99.99.55,2.59,1.34,4.8,2.38,2.67,1.27,4.76,2.36,6.27,3.29,1.5.93,2.78,2.09,3.82,3.5,1.04,1.41,1.56,3.11,1.56,5.1Z"/>
  </g>
</svg>