<?xml version="1.0" encoding="UTF-8"?>
<svg id="_レイヤー_1" data-name="レイヤー_1" xmlns="http://www.w3.org/2000/svg" version="1.1" viewBox="0 0 540.32 282.32">
  <!-- Generator: Adobe Illustrator 30.3.0, SVG Export Plug-In . SVG Version: 2.1.3 Build 182)  -->
  <defs>
    <style>
      .st0 {
        fill: #fff;
      }
    </style>
  </defs>
  <g>
    <g>
      <path class="st0" d="M48.76,233.29c-2.03-2.71-4.44-2.97-5.69-2.97-3.65,0-4.8,2.3-4.8,4.07,0,.84.26,1.62,1.1,2.35.84.78,1.98,1.2,4.17,1.98,2.71.94,5.27,1.88,7.04,3.5,1.56,1.41,2.97,3.76,2.97,7.3,0,6.78-4.9,11.43-12.1,11.43-6.42,0-10.17-3.91-12-6.57l4.44-4.23c1.67,3.39,4.85,4.64,7.3,4.64,3.08,0,5.37-1.88,5.37-4.8,0-1.25-.42-2.24-1.36-3.13-1.3-1.2-3.39-1.88-5.37-2.56-1.83-.63-4.02-1.46-5.79-3.03-1.15-.99-2.77-2.92-2.77-6.47,0-5.11,3.44-10.23,11.17-10.23,2.19,0,6.31.42,9.86,4.07l-3.55,4.64Z"/>
      <path class="st0" d="M77.77,225.36v21.86c0,2.66.89,4.28,1.67,5.17.99,1.2,2.82,2.4,5.53,2.4s4.54-1.2,5.53-2.4c.78-.89,1.67-2.5,1.67-5.17v-21.86h6.78v21.29c0,3.29-.52,6.63-2.61,9.29-2.5,3.29-6.89,5.01-11.37,5.01s-8.87-1.72-11.37-5.01c-2.09-2.66-2.61-6-2.61-9.29v-21.29h6.78Z"/>
      <path class="st0" d="M128.42,225.36c4.8,0,7.25,1.25,8.87,2.61,2.66,2.24,3.44,5.22,3.44,7.83,0,3.39-1.36,6.37-4.07,8.19-.89.63-2.14,1.2-3.81,1.51l10.85,14.66h-8.45l-9.29-13.98h-.84v13.98h-6.78v-34.8h10.07ZM125.14,241.38h1.93c1.3,0,6.68-.16,6.68-5.27s-5.32-5.22-6.57-5.22h-2.03v10.49Z"/>
      <path class="st0" d="M178.25,231.21h-11.69v7.77h10.96v5.84h-10.96v15.34h-6.78v-34.8h18.47v5.84Z"/>
    </g>
    <path class="st0" d="M263.68,225.36c1.93,0,5.69,0,8.5,2.19,2.03,1.57,3.23,4.28,3.23,7.2,0,4.49-2.97,6.31-3.91,6.83,2.3.37,3.65,1.36,4.54,2.19,2.09,1.98,2.5,4.7,2.5,6.52,0,2.03-.57,4.9-2.97,7.04-2.61,2.3-5.79,2.82-8.82,2.82h-11.69v-34.8h8.61ZM261.86,239.81h1.93c1.04,0,5.27-.1,5.27-4.54,0-3.18-2.45-4.38-5.22-4.38h-1.98v8.92ZM261.86,254.63h2.92c1.25,0,3.13-.05,4.64-.94,1.67-.99,2.14-2.66,2.14-4.02,0-1.1-.37-2.97-2.56-3.96-1.46-.68-3.18-.68-4.64-.68h-2.5v9.6Z"/>
    <path class="st0" d="M331.77,242.79c0,10.59-7.62,18.16-18.57,18.16s-18.57-7.57-18.57-18.16,7.62-18.21,18.57-18.21,18.57,7.62,18.57,18.21ZM324.78,242.79c0-7.04-4.8-12.05-11.58-12.05s-11.58,5.01-11.58,12.05,4.8,12,11.58,12,11.58-4.96,11.58-12Z"/>
    <path class="st0" d="M368.55,252.86h-14.03l-3.08,7.3h-7.36l14.97-34.8h5.32l14.56,34.8h-7.3l-3.08-7.3ZM366.57,247.33l-4.96-12.52-4.96,12.52h9.91Z"/>
    <path class="st0" d="M404.54,225.36c4.8,0,7.25,1.25,8.87,2.61,2.66,2.24,3.44,5.22,3.44,7.83,0,3.39-1.36,6.37-4.07,8.19-.89.63-2.14,1.2-3.81,1.51l10.85,14.66h-8.45l-9.29-13.98h-.84v13.98h-6.78v-34.8h10.07ZM401.26,241.38h1.93c1.3,0,6.68-.16,6.68-5.27s-5.32-5.22-6.57-5.22h-2.03v10.49Z"/>
    <path class="st0" d="M444.98,225.36c4.85,0,9.08.52,12.94,3.39,4.23,3.18,6.68,8.24,6.68,14.03s-2.4,10.8-6.99,14.03c-4.07,2.87-7.88,3.34-12.73,3.34h-8.97v-34.8h9.08ZM442.68,254.32h2.09c1.72,0,5.48-.1,8.5-2.3,2.77-1.98,4.33-5.53,4.33-9.24s-1.51-7.2-4.28-9.29c-2.82-2.09-6.26-2.3-8.56-2.3h-2.09v23.11Z"/>
    <path class="st0" d="M499.44,233.29c-2.04-2.71-4.43-2.97-5.69-2.97-3.65,0-4.8,2.3-4.8,4.07,0,.84.26,1.62,1.1,2.35.83.78,1.98,1.2,4.17,1.98,2.71.94,5.27,1.88,7.04,3.5,1.57,1.41,2.97,3.76,2.97,7.3,0,6.78-4.9,11.43-12.1,11.43-6.42,0-10.17-3.91-12-6.57l4.43-4.23c1.67,3.39,4.85,4.64,7.3,4.64,3.08,0,5.37-1.88,5.37-4.8,0-1.25-.42-2.24-1.36-3.13-1.3-1.2-3.39-1.88-5.37-2.56-1.83-.63-4.02-1.46-5.79-3.03-1.15-.99-2.77-2.92-2.77-6.47,0-5.11,3.44-10.23,11.17-10.23,2.19,0,6.31.42,9.86,4.07l-3.55,4.64Z"/>
  </g>
  <g>
    <path class="st0" d="M59.12,147.48c-27.63,47.83,4.46,44.27,36.84,20.8,1.49-1.19,5.35-3.27,7.43-1.49,2.38,2.67.89,5.35-2.08,7.72-6.54,4.75-14.85,11.29-25.25,16.93-8.62,4.75-25.25,11.29-39.22,11.59-13.07.3-24.06-4.16-24.36-19.91-.59-23.17,16.93-46.05,28.22-58.23,18.72-19.91,44.27-37.14,71.6-37.43,10.1-.3,17.83,4.16,17.83,15.15-.3,21.69-37.43,48.72-71,44.86ZM63.87,137.98c19.91,2.38,58.23-29.11,51.69-36.25-6.83-7.43-37.73,14.56-51.69,36.25Z"/>
    <path class="st0" d="M312.82,33.4c-21.52,20.4-66.21,87.14-88.64,131.44-.29.58-.51,1.18-.64,1.82-7.08,34.3,6.39,62.64,10.27,73,1.7,4.71.68,8.84-4.07,8.54-2.97-.3-5.94-2.08-6.83-2.97-20.43-18.48-29.82-51.8-23.28-76.65.74-2.83-.62-3.53-2.6-1.37-30.31,33.01-55.16,33.45-67.21,33.45-41,0,10.4-97.74,63.87-110.52,16.36-3.92,27.54-2.29,34.5.16,3.04,1.07,6.42-.03,8.27-2.67.36-.52.75-1.05,1.2-1.65,9.51-13.96,27.04-41.29,42.78-55.26,5.35-5.05,11.29-8.02,15.75-9.21,4.46-1.19,12.77-1.78,17.23.89,6.83,4.16,3.86,6.83-.59,10.99ZM213.3,99.95c-33.27,9.21-56.45,51.99-59.71,63.28-3.86,13.67,7.13,17.83,53.77-32.68,3.88-4.29,9.02-12.08,13.98-19.72,3.59-5.53-1.54-12.72-7.88-10.92-.05.01-.1.03-.15.04Z"/>
    <path class="st0" d="M374.02,150.16c-8.91,13.96-21.09,35.06-20.8,47.24,0,3.86-5.05,3.27-8.02,2.38-23.47-8.32-13.37-41.89,10.99-78.13,7.43-10.99-2.67-6.83-8.02-3.57-12.18,7.43-18.12,11.59-37.14,30.01-16.64,16.34-32.98,41.29-38.32,49.02-2.97,4.46-10.99,3.56-17.23.59-8.32-4.16-9.21-15.75,3.57-35.65,6.54-10.1,15.15-23.77,23.77-37.43,9.51-14.85,14.26-21.98,20.8-30.6,3.27-4.46,5.64-5.35,10.99-5.35,2.97,0,6.24.89,10.7,4.46,7.72,6.54,2.38,15.75-2.38,23.47-4.46,7.13-10.7,16.04-21.09,30.01,18.72-21.09,45.46-46.94,73.98-54.96,8.02-2.38,16.64-2.38,20.8,1.49,10.4,9.21,2.08,19.01.3,21.69-8.62,13.37-11.59,17.83-22.88,35.35Z"/>
    <path class="st0" d="M519.59,109.46c-2.38,1.49-5.05,1.19-6.83.59-6.83-1.78-1.78-10.7-14.26-10.7-27.04,0-60.31,40.4-67.14,64.47-3.86,13.67,5.64,16.93,52.29-33.57,8.32-8.91,13.67-17.83,22.28-18.42,5.05-.3,9.21,2.38,12.77,5.64,4.46,4.16,2.38,12.48.3,15.75-5.94,9.21-14.56,22.58-19.31,32.98-7.13,15.45-9.8,25.55-10.4,34.17-.3,3.86-4.75,2.97-8.32,2.08-18.42-5.35-16.93-35.95-8.32-48.72-55.85,60.9-78.73,46.64-80.21,38.62-4.75-26.44,32.38-89.13,79.03-101.9,6.83-1.78,13.96-2.67,19.31-2.67,16.04-.3,31.79,3.57,31.79,13.67,0,2.38-1.19,6.83-2.97,8.02Z"/>
  </g>
</svg>