<?xml version="1.0" encoding="UTF-8"?>
<svg id="_レイヤー_1" xmlns="http://www.w3.org/2000/svg" version="1.1" viewBox="0 0 626.17 204.12">
  <!-- Generator: Adobe Illustrator 30.3.0, SVG Export Plug-In . SVG Version: 2.1.3 Build 182)  -->
  <defs>
    <style>
      .st0 {
        fill: #fff;
      }
    </style>
  </defs>
  <g>
    <path class="st0" d="M272.56,125.81l-23.49-7.7c-5.38-1.76-10.3-4.02-15.42-6.77l-.18,21.04.08,11.61c.05,7.32.19,14.35,0,21.73-2.57,6.03-6.77,9.56-13.27,10.91l-8.69,1.8c-6.4.78-12.03,3.26-17.26,7.02-.86-.18-2.2-1.75-2.16-2.59l.33-5.62.46-9.99.44-18.58.12-94.16-.5-8.3c-.28-4.66-1-9.24-1.5-13.86-.42-3.88-1.53-7.12-4.22-10.27.97-1.23,2.39-1.22,3.69-1.27,8.75-.38,20.01,1.71,27.33,6.58,6.63,3.85,11.03,9.88,12.31,17.43.99,5.88,1.54,11.38,1.31,17.62,7.57,3.59,15.36,6.31,23.44,9.2,13.52,4.83,33.99,13.52,46.91,9.82.68-.2,1.62-.46,2.02-.18s.56,1.48.35,2.01l-1.91,5.02c-.68,1.78-1.55,3.55-2.86,4.89l-6.12,6.25c-3.14,3.2-7.31,4.54-12.08,5.65,7.69,6.42,12.28,15.13,12.48,24.88l-.23,4.38c-.05,1.05-.35,2.3-1.08,2.57-5.67-4.91-12.85-9.11-20.28-11.13h-.02Z"/>
    <g>
      <path class="st0" d="M177.22,182.6l-7.29-1.73-6.46-.8-8.7-.39-11.41-.49-10.95-.43-26.93-.21-39.67.26-17.44.41-7.73.42-5.9.46-6.46.77c-3.92.46-5.85,1.91-7.83,1.91s1.12-8.6,4.76-12.64,7.72-7.19,12.93-9.91c-13.16-5.04-19.36-25.55-16.37-24.5l1.87.65c3.45,1.21,7.29,1.79,11.04,2.07l5.11.38,32.73.07,3.14-.56-.1-9.92.11-19.17.12-29.72-13.26.38c-7.64.22-15.04.19-22.61.8-4.82.39-10.15,3.13-10.37,2.38l-.53-1.73c3.08-11.48,9.59-19.2,20.1-25.07-8.36-4.91-13.81-12.93-16.22-21.96-.88-3.3-2.1-7.84-.79-10.44,2,.78,3.28,1.46,5.09,2.04,6.51,2.08,16.97,2.24,24.43,1.89,8.93-.41,17.53-.14,26.44.11l8.2.22,5.59-.04,47.51-.32c5.98-.04,11.7-.96,17.03-3.12,1.15-.47,2.11-.77,3.27-.69.3,3.61-.51,6.43-1.48,9.69-3,10.03-7,17.53-16.54,23.14,4.3,2.4,8.08,4.85,11.04,8.41,4.27,4.71,7.42,9.9,8.49,16.23l-.46,1.6c-.13.44-1.44-.1-1.89-.27-5.21-1.97-10.64-2.39-16.17-2.52l-13.82-.32-16.02-.12-4.62-.03.26,12.54.12,13.21-.09,8.32-.02,11.38-.11,10.43-.07,2.79,19.78.25c7.42.09,14.67.22,22.11.17l5.05-.49c4.7-.46,8.81-1.37,13.67-3.54.92,10.49-7.17,22.62-17,26.52l6.84,4.67c4.6,3.99,7.73,8.94,9.35,14.96.15.25-.46,1.73-.87,1.63v-.03h0Z"/>
      <path class="st0" d="M309.43,43.54c-3.17,5.7-8.01,8.87-13.98,10.73l-7.55,2.37c-.73.23-1.54.43-2.01.26s-1.11-1.47-.99-2.05l1.6-7.46c.45-2.1,1.11-4.01,1.14-6.14.09-6.15-.49-12.19-2.69-17.86l-.58-1.51c-.13-.33.74-1.22,1.11-1.15l7.11,1.31c2.24.41,3.71,1.54,5.95,1.44,4.42,1.81,7.81,5.19,10.36,9.23,2.71,4.29,5.68,5.41,3.45,7.76l-2.92,3.08h0Z"/>
      <path class="st0" d="M277.68,45.95c-2.73,3.55-6.12,6.41-10.49,7.77l-8.75,2.72c-.87.27-2,.67-2.54.32-.9-.58-1.09-1.84-.87-2.8l2.05-8.99c1.19-5.22.33-10.69-.59-16.02-.73-4.19-3.02-6.53-1.96-7.75.82-.95,7.6.53,11.34,2.01,3.75-.18,8.57,3.65,10.74,6.59l4.1,5.57,2.5,3.39-5.52,7.18h-.01Z"/>
    </g>
  </g>
  <g>
    <path class="st0" d="M572.58,178.25l-53.53-.07-4.15.38-25.33.27-12.75.5c-5.81.23-11.26,1.02-17.47,2.3,2.33-7.81,8.3-13.19,15.66-15.53.41-.13,1.3-.73,1.59-.96-5.8-2.21-10.79-11.26-9.22-13.71.3-.46,1.64.32,2.27.41l11.04,1.57,23.7.11-.52-7.78-13.84.19-7.52.41-4.53.47c-2.41.25-4.72.4-7.21.12,2.27-4.61,6.02-6.87,10.53-8.55-3.99-2.78-7.51-7.24-6.38-11.45,5.44,1.96,10.35,2.9,15.8,2.88l13.51-.05-.15-8.63-10.48.2c-5.02.09-10.92.93-16.29-1.52,5.59-4.39,10.68-8.51,15.23-13.7l8.64-9.85-5.47.18c-5.06.16-9.94-5.37-12.62-10.13l-2.84-5.03c-1.32,9.44-2.5,18.19-4.95,27.15l-7.57,23.08c-4.19,10.81-10.09,20.6-17.26,29.69-4.21,5.33-8.66,9.76-13.95,13.93-3.03,2.39-6.1,4.84-9.78,6.21l-4.67,1.74c-.32.12-1.28-.05-1.51-.29-.29-.31.18-1.14.54-1.55l3.7-4.14c12.83-14.35,22.41-50.2,25.37-70.06l1.05-9.45.53-6.25.23-19.44-.29-10.31-.94-8.22c-.98-8.56-3.25-16.8-7.78-24.24l-4.66-5.79c-.52-.64-1.04-1.31-.84-1.79.28-.67,1.35-1.01,2.05-.94l12.41,1.31,7.71.41,18.91.42,43.62.15,5.03-.39,6.87-.31,15.96-.31,6.85-.3,6.42-.28c6.66-.29,13.29-.53,19.59-2.98l4.1-1.96c1.87,7.08-1.79,15.94-6.09,21.48l-4.35,4.36c-1.83,1.83-4.7,2.7-6.97,3.84l6.81,6.3c3.73,4.5,6.36,9.98,7.42,15.78l.92,8.49c.19,1.79-3.82-1.16-7.61-1.37l-15.69-.86-12.99-.2-28.73.13-33.09.37-5.85.29-.59,5.66,1.77-1c.69-.39,1.93,1.18,4.62.84,4.98.93,9.58,1.27,14.65.43l64.71.09c2.47,0,5.8,2.11,7.23,3.48.93.89,1.4,1.57,2.37,1.96,4.75,1.95,8.8,8.51,8.61,10.14s-2.45.04-6.69-.26l-3.65-.25-6.47-.43-7.32.55c6.06,1.93,11.26,5.71,13.16,11.76l2.19,10.77c.3,1.47,2.07,3.44,2.85,4.37l-2.48,2.05-9.35-3.46c-.97-.36-3.38-.55-4.44-.56h-18.82l.19,8.64,15.78-.18c4.6-.05,8.88.25,13.35,1.56l6.63-2.07,1.72-.2c.42-.05.78,1.37.48,1.67l-2.8,2.87-1.12,1.11c-.61.6,2.74,2.04,5.78,4.97l5.04,4.87c-2.69.95-5.75,1.96-8.34,1.72l-7.41-.71-19.18.08-9.59.38v7.29l15.06-.44,12.77-.37c8.47-.25,16.59-.99,24.62-3.88,3.01-1.08,4.29-3.4,4.83-2.71l.77.98c.06,3.83-1.14,7.32-3.25,10.49-1.51,3.14-4.03,5.27-7.12,7.19,8.15,2.37,15.03,8.29,17.78,15.97.15.42.09,1.45-.25,1.74s-1.37.04-1.94-.14c-4.82-1.55-9.71-2.24-14.76-2.6l-5.6-.4-6.84-.3-7.14-.4h0ZM553.01,55.99l-7.48-7.92-6.43.46-7.78.35-38.06-.11-12.8-.39.37,7.82,9.23-.25,24.41.16,14.6-.18,15.96.05c2.76,0,5.36.67,7.99,0h-.01ZM557.37,99.33l-2.69-2.74,3.82-.17.24-.38-15.55.08-17.45.19c-2.26,3.25-5.08,6.19-8.24,9.26l14.96-.27,20.19-.11c.7.38,2.86.56,3.3-.08.63-1.59,1.15-4.1,1.43-5.77h-.01Z"/>
    <path class="st0" d="M294.15,181.83c-1.03.02-1.93-.36-3.01-1.02l5.04-1.96,6.08-2.46c6.41-3.37,12.36-7.13,17.72-11.9,17.48-15.58,25.45-32.86,31.75-55l2.4-8.44-26.8-.12-5.67-.3c-6.1-.32-11.55,1.72-12.9.44-1.27-1.2,2.93-5.17,2.82-10.86l-.09-4.8-.52-3.66c-.23-6.8-2.23-13.23-6.52-18.53l-1.18-1c-.31-.26.14-1.74.53-1.73l5.28.23c7.85.34,15.39-.11,23.23-.17l12.81-.11,15.85.3.34-9.38c.24-6.5.42-12.93.01-19.43-.25-3.97-1.12-7.61-2.44-11.26l-.56-1.56c-.16-.43,1.38-.9,1.84-.83l10.6,1.73,6.53,1.76c9.78,2.63,19.86,8.42,20.74,19l.36,5.02.13,14.61,26.9.13c2.37,0,4.57.46,6.87.05l5.13-.92c.43-.08,1.33-.02,1.68.14.38.17,2.02,6.19-.54,11.46-2.24,4.6-3.25,9.38-3.26,14.6,0,2.76.12,5.84.94,8.56l1.93,6.41c-2.19.99-4.14.64-6.44.36l-4.51-.55h-29.47c-3.42,20.38-10.07,38.85-23.97,54.13-11.2,12.42-28.46,20.12-44.71,23.33-7.99,1.57-15.66,2.75-23.75,3.56l-11.18.18h.01Z"/>
  </g>
</svg>