<?xml version="1.0" encoding="UTF-8"?>
<svg id="_レイヤー_1" data-name="レイヤー_1" xmlns="http://www.w3.org/2000/svg" version="1.1" viewBox="0 0 443.01 145.41">
  <!-- Generator: Adobe Illustrator 30.3.0, SVG Export Plug-In . SVG Version: 2.1.3 Build 182)  -->
  <defs>
    <style>
      .st0 {
        fill: #fff;
      }
    </style>
  </defs>
  <g>
    <path class="st0" d="M114.9,18.3c1.78,0,3.43.38,4.94,1.15,1.51.77,2.83,1.78,3.94,3.05,1.12,1.26,1.98,2.69,2.6,4.27.62,1.59.93,3.22.93,4.91,0,1.59-.26,3.1-.78,4.53-.52,1.44-1.24,2.75-2.16,3.94-.92,1.19-2.03,2.18-3.34,2.97-1.31.79-2.76,1.34-4.35,1.64-1.24.25-2.45.38-3.64.41-1.19.03-2.43.06-3.72.11v24.53h-2.08v-26.91h8.4c.1,0,.48-.11,1.15-.33.67-.22,1.2-.38,1.6-.48,1.04-.4,1.99-.95,2.86-1.67.87-.72,1.6-1.55,2.19-2.49.59-.94,1.06-1.94,1.41-3.01s.52-2.14.52-3.23c0-1.24-.26-2.51-.78-3.83-.52-1.31-1.23-2.51-2.12-3.61-.89-1.09-1.92-1.98-3.09-2.68s-2.42-1.04-3.75-1.04h-10.78v49.29h-11V18.3h21.04Z"/>
    <path class="st0" d="M142.18,18v51.29h-10.93V18h10.93ZM146.5,44.99v22.15h17.69v2.16h-19.77v-24.31h2.08Z"/>
    <path class="st0" d="M195.71,18h2.3c0,.2-.1.45-.3.74l-15.09,26.09h15.39v24.46h-2.16v-22.08h-14.57l-12.79,22.08h-2.38l29.59-51.29ZM211.39,69.3h-11.15V18.23l.07-.07.15-.15s.14-.11.26-.19c.12-.07.21-.11.26-.11h10.41v51.59Z"/>
    <path class="st0" d="M228.86,17.71l29.66,51.29h-13.01l-26.76-46.83h-.37v47.13h-2.08V17.71h12.56ZM245.89,43.5h2.3l12.19,20.82c.15.25.23.33.26.26.02-.07.16-.11.41-.11V17.71h2.08v51.29h-2.53l-14.72-25.5Z"/>
    <path class="st0" d="M302.01,18v2.08h-22.67v49.21h-11V18h33.68ZM301.05,44.99v2.08h-17.62v20.07h17.62v2.16h-19.85v-24.31h19.85Z"/>
    <path class="st0" d="M318.37,20.38h-14.13v-2.08h25.57v51.52h-11.08V20.75l-.37-.37ZM344.39,18.3v2.08h-10.04v24.68h-2.08v-26.76h12.12Z"/>
  </g>
  <g>
    <path class="st0" d="M46.61,84.55v2.08h-22.23v49.21h-11v-51.29h33.23ZM46.61,111.53v2.08h-17.77v22.23h-2.08v-24.31h19.85Z"/>
    <path class="st0" d="M66.83,112.05v19.85c0,.3.47.58,1.41.86.94.27,1.99.51,3.16.71,1.16.2,2.25.36,3.27.48,1.02.12,1.6.19,1.75.19,3.27,0,6.34-.62,9.22-1.86,2.87-1.24,5.39-2.92,7.55-5.06,2.16-2.13,3.87-4.62,5.13-7.47,1.26-2.85,1.9-5.91,1.9-9.18s-.62-6.27-1.86-9.14c-1.24-2.87-2.94-5.38-5.09-7.51-2.16-2.13-4.67-3.82-7.54-5.06-2.87-1.24-5.95-1.86-9.22-1.86-2.48,0-4.89.38-7.25,1.15-2.35.77-4.52,1.9-6.5,3.38-.1.1-.27.24-.52.41-.25.17-.37.29-.37.33v39.4c-.89-.4-1.77-1.03-2.64-1.9-.87-.87-1.6-1.65-2.19-2.34-2.08-2.28-3.63-4.87-4.65-7.77-1.02-2.9-1.52-5.88-1.52-8.96,0-3.57.67-6.93,2.01-10.07,1.34-3.15,3.18-5.9,5.54-8.25s5.09-4.21,8.21-5.58c3.12-1.36,6.47-2.04,10.04-2.04s6.84.68,9.96,2.04c3.12,1.36,5.86,3.22,8.21,5.58,2.35,2.35,4.21,5.09,5.58,8.21,1.36,3.12,2.04,6.44,2.04,9.96s-.68,6.84-2.04,9.96c-1.36,3.12-3.21,5.86-5.54,8.21-2.33,2.35-5.06,4.21-8.18,5.58-3.12,1.36-6.44,2.04-9.96,2.04-1.98,0-3.9-.21-5.76-.63s-3.68-1.03-5.46-1.82c-.15-.05-.27-.1-.37-.15-.25-.1-.37-.22-.37-.37v-21.34h2.08Z"/>
    <path class="st0" d="M113.96,86.92h-14.12v-2.08h25.57v51.52h-11.08v-49.06l-.37-.37ZM139.98,84.84v2.08h-10.04v24.68h-2.08v-26.76h12.12Z"/>
    <path class="st0" d="M156.56,112.05v19.85c0,.3.47.58,1.41.86.94.27,1.99.51,3.16.71,1.16.2,2.25.36,3.27.48,1.02.12,1.6.19,1.75.19,3.27,0,6.34-.62,9.22-1.86,2.87-1.24,5.39-2.92,7.55-5.06,2.16-2.13,3.87-4.62,5.13-7.47,1.26-2.85,1.9-5.91,1.9-9.18s-.62-6.27-1.86-9.14c-1.24-2.87-2.94-5.38-5.09-7.51-2.16-2.13-4.67-3.82-7.54-5.06-2.87-1.24-5.95-1.86-9.22-1.86-2.48,0-4.89.38-7.25,1.15-2.35.77-4.52,1.9-6.5,3.38-.1.1-.27.24-.52.41-.25.17-.37.29-.37.33v39.4c-.89-.4-1.77-1.03-2.64-1.9-.87-.87-1.6-1.65-2.19-2.34-2.08-2.28-3.63-4.87-4.65-7.77-1.02-2.9-1.52-5.88-1.52-8.96,0-3.57.67-6.93,2.01-10.07,1.34-3.15,3.18-5.9,5.54-8.25s5.09-4.21,8.21-5.58c3.12-1.36,6.47-2.04,10.04-2.04s6.84.68,9.96,2.04c3.12,1.36,5.86,3.22,8.21,5.58,2.35,2.35,4.21,5.09,5.58,8.21,1.36,3.12,2.04,6.44,2.04,9.96s-.68,6.84-2.04,9.96c-1.36,3.12-3.21,5.86-5.54,8.21-2.33,2.35-5.06,4.21-8.18,5.58-3.12,1.36-6.44,2.04-9.96,2.04-1.98,0-3.9-.21-5.76-.63s-3.68-1.03-5.46-1.82c-.15-.05-.27-.1-.37-.15-.25-.1-.37-.22-.37-.37v-21.34h2.08Z"/>
    <path class="st0" d="M227.53,83.95v51.29h-10.93v-51.29h10.93ZM231.84,110.94v22.15h17.69v2.16h-19.77v-24.31h2.08Z"/>
    <path class="st0" d="M281.05,83.95h2.3c0,.2-.1.45-.3.74l-15.09,26.09h15.39v24.46h-2.16v-22.08h-14.57l-12.79,22.08h-2.38l29.59-51.29ZM296.74,135.25h-11.15v-51.07l.07-.07.15-.15s.14-.11.26-.19c.12-.07.21-.11.26-.11h10.41v51.59Z"/>
    <path class="st0" d="M323.72,83.95c.89,0,1.83.22,2.83.67.99.45,1.86.87,2.6,1.26,1.98,1.09,3.52,2.7,4.61,4.83,1.09,2.13,1.64,4.29,1.64,6.47,0,2.78-.73,5.17-2.19,7.17-1.46,2.01-3.31,3.71-5.54,5.09v.22c2.23,1.34,4.08,3.02,5.54,5.05,1.46,2.03,2.19,4.41,2.19,7.14,0,1.54-.31,3.1-.93,4.68-.62,1.59-1.48,3.02-2.56,4.31-1.09,1.29-2.35,2.34-3.79,3.16-1.44.82-3,1.23-4.68,1.23h-8.4v-26.54c.3,0,.79-.01,1.49-.04.69-.02,1.44-.05,2.23-.07.79-.02,1.54-.05,2.23-.08.69-.02,1.19-.04,1.49-.04,1.49-.1,2.89-.46,4.2-1.08,1.31-.62,2.45-1.44,3.42-2.45.97-1.02,1.72-2.19,2.27-3.53.54-1.34.82-2.75.82-4.24,0-2.43-.66-4.55-1.97-6.36-1.31-1.81-3.06-3.21-5.24-4.2-.05,0-.16-.02-.33-.07-.17-.05-.31-.1-.41-.15-.15-.05-.35-.1-.59-.15-.25-.05-.4-.07-.45-.07h-11.52v49.06h-11v-51.29h22.08ZM317.26,133.02h6.69c1.29,0,2.49-.36,3.61-1.08,1.11-.72,2.09-1.62,2.94-2.71.84-1.09,1.5-2.27,1.97-3.53.47-1.26.71-2.46.71-3.6,0-1.93-.33-3.62-1-5.06-.67-1.44-1.6-2.63-2.79-3.57-1.19-.94-2.57-1.65-4.13-2.12-1.56-.47-3.23-.71-5.02-.71-.25,0-.74.01-1.49.04-.74.03-1.24.04-1.49.04v22.3Z"/>
    <path class="st0" d="M354.13,111.46v19.85c0,.3.47.58,1.41.86.94.27,1.99.51,3.16.71,1.16.2,2.25.36,3.27.48,1.02.12,1.6.19,1.75.19,3.27,0,6.34-.62,9.22-1.86,2.87-1.24,5.39-2.92,7.55-5.06,2.16-2.13,3.87-4.62,5.13-7.47,1.26-2.85,1.9-5.91,1.9-9.18s-.62-6.27-1.86-9.14c-1.24-2.87-2.94-5.38-5.09-7.51-2.16-2.13-4.67-3.82-7.54-5.06-2.87-1.24-5.95-1.86-9.22-1.86-2.48,0-4.89.38-7.25,1.15-2.35.77-4.52,1.9-6.5,3.38-.1.1-.27.24-.52.41-.25.17-.37.29-.37.33v39.4c-.89-.4-1.77-1.03-2.64-1.9-.87-.87-1.6-1.65-2.19-2.34-2.08-2.28-3.63-4.87-4.65-7.77-1.02-2.9-1.52-5.88-1.52-8.96,0-3.57.67-6.93,2.01-10.07,1.34-3.15,3.18-5.9,5.54-8.25s5.09-4.21,8.21-5.58c3.12-1.36,6.47-2.04,10.04-2.04s6.84.68,9.96,2.04c3.12,1.36,5.86,3.22,8.21,5.58,2.35,2.35,4.21,5.09,5.58,8.21,1.36,3.12,2.04,6.44,2.04,9.96s-.68,6.84-2.04,9.96c-1.36,3.12-3.21,5.86-5.54,8.21-2.33,2.35-5.06,4.21-8.18,5.58-3.12,1.36-6.44,2.04-9.96,2.04-1.98,0-3.9-.21-5.76-.63s-3.68-1.03-5.46-1.82c-.15-.05-.27-.1-.37-.15-.25-.1-.37-.22-.37-.37v-21.34h2.08Z"/>
    <path class="st0" d="M416.42,84.25c1.78,0,3.44.37,4.98,1.11,1.54.74,2.87,1.75,4.02,3.01,1.14,1.26,2.03,2.7,2.68,4.31s.97,3.26.97,4.94c0,2.38-.53,4.53-1.6,6.47-1.07,1.93-2.61,3.57-4.65,4.91-.59.4-1.2.7-1.82.89-.62.2-1.25.47-1.9.82l.3.52,13.98,24.31h-13.01l-11.15-19.33-.59-.52v20.07h-2.16v-26.91h10.93s.32-.07.82-.22c.49-.15.89-.27,1.19-.37,2.38-.84,4.21-2.22,5.5-4.13,1.29-1.91,1.93-4.08,1.93-6.5,0-1.24-.24-2.53-.71-3.87-.47-1.34-1.13-2.54-1.97-3.61-.84-1.06-1.83-1.94-2.97-2.64-1.14-.69-2.4-1.04-3.79-1.04h-13.53v49.29h-11v-51.52h23.57Z"/>
  </g>
</svg>